<?xml version="1.0" encoding="utf-8"?>
<!-- Generator: Adobe Illustrator 21.0.1, SVG Export Plug-In . SVG Version: 6.00 Build 0)  -->
<svg version="1.1" id="Calque_1" xmlns="http://www.w3.org/2000/svg" xmlns:xlink="http://www.w3.org/1999/xlink" x="0px" y="0px"
	 viewBox="0 0 432 432" style="enable-background:new 0 0 432 432;" xml:space="preserve">
<style type="text/css">
	.st0{fill:#EE4089;}
	.st1{fill:#FBB040;}
</style>
<path d="M216,64.8c-83.4,0-151.2,67.8-151.2,151.2S132.6,367.2,216,367.2S367.2,299.4,367.2,216S299.4,64.8,216,64.8z M323.7,318.8
	c-0.1-0.1-0.3-0.2-0.6-0.2c-2.9-0.2-5.5-1.3-7.4-3.2c-1.9-1.8-3.2-4.3-3.8-7.1c-0.5-2.6-0.3-5.4,0.8-8.2c0.4-1.1,1.1-2.3,2-3.6
	c0.7-1,1.6-2,2.6-2.8c0.5,0.6,1,1.1,1.7,1.5c-3.6,3.5-4.8,8.4-3.4,13.2c1.3,4.4,5.1,7,9.6,6.4c1.2-0.2,2.3-0.6,3.4-1.2
	C326.9,315.3,325.3,317.1,323.7,318.8z M307.4,333.5c0,0-0.1-0.1-0.1-0.1c-3.9-2.7-7-6.4-9.1-11c-1-2.1-1.7-4.4-2.2-6.8
	c-0.5-2.3-0.7-4.6-0.8-7.3c-0.1-1.9,0.1-3.9,0.4-6.3c0.2-2,0.7-3.9,1.3-5.9c0.5-1.8,1.2-3.6,2.1-5.5c0.7-1.5,1.5-2.9,2.2-4.1
	c0.3,0.7,0.7,1.3,1.3,1.7c1.3,1.1,2.8,1.2,4.3,0.4c-3.1,4.2-5,8.5-5.8,13.1c-0.1,0.3-0.2,0.6-0.2,0.9c-0.3,1.9-0.4,3.9-0.3,6
	c0.3,8.8,5.3,16.7,12.6,20.4C311.2,330.5,309.3,332,307.4,333.5z M108.3,113.2c0.1,0.1,0.3,0.2,0.6,0.2c2.9,0.2,5.5,1.3,7.4,3.2
	c1.9,1.8,3.2,4.3,3.8,7.1c0.5,2.6,0.3,5.4-0.8,8.2c-0.4,1.1-1.1,2.3-2,3.6c-0.7,1-1.6,2-2.6,2.8c-0.5-0.6-1-1.1-1.7-1.5
	c3.6-3.5,4.8-8.4,3.4-13.2c-1.3-4.4-5.1-7-9.6-6.4c-1.2,0.2-2.3,0.6-3.4,1.2C105.1,116.7,106.7,114.9,108.3,113.2z M124.6,98.5
	c0,0,0.1,0.1,0.1,0.1c3.9,2.7,7,6.4,9.1,11c1,2.1,1.7,4.4,2.2,6.8c0.5,2.3,0.7,4.6,0.8,7.3c0.1,1.9-0.1,3.9-0.4,6.3
	c-0.2,2-0.7,3.9-1.3,5.9c-0.5,1.8-1.2,3.6-2.1,5.5c-0.7,1.5-1.5,2.9-2.2,4.1c-0.3-0.7-0.7-1.3-1.3-1.7c-1.3-1.1-2.8-1.2-4.3-0.4
	c3.1-4.2,5-8.4,5.8-13.1c0.1-0.3,0.2-0.6,0.2-0.9c0.3-1.9,0.4-3.9,0.3-6c-0.3-8.8-5.3-16.7-12.6-20.4
	C120.8,101.5,122.7,100,124.6,98.5z M83.5,219.3C83.5,219.3,83.5,219.3,83.5,219.3C83.5,219.3,83.5,219.3,83.5,219.3
	C83.5,219.3,83.5,219.3,83.5,219.3z M338.1,235.8c1.7-1,3.3-2,5-3c0.3,0.5,0.6,0.9,0.9,1.3c-1.4,1.3-2.9,2.5-4.4,3.7l-0.2,0.1
	C339,237.3,338.5,236.6,338.1,235.8z M310.2,312.5c0.2,0.5,0.4,0.9,0.6,1.3l-0.8,0.6c-1.4,1-2.9,2.1-4.4,3.1
	c-0.5-0.9-0.9-1.9-1.2-2.9c1.5-0.5,2.9-1,4.4-1.6C309.2,312.9,309.7,312.7,310.2,312.5z M309,304.3c0,0.5-0.1,1.1-0.1,1.6
	c-2.1,0.2-4.1,0.4-5.9,0.5c0-0.9,0.1-1.7,0.2-2.6C305.2,304,307.1,304.2,309,304.3z M311.5,296.3c-0.2,0.4-0.5,0.8-0.7,1.2
	c-2.2-0.4-4-0.8-5.7-1.1c0.3-0.8,0.7-1.5,1-2.1C308,295,309.8,295.7,311.5,296.3z M293,341.5c-1.7-0.4-2.9-2.1-3.9-4
	c1.8-0.7,3.6-1.6,5.6-2.8c-1,1.6-1.9,3.8-0.2,5.5c0.2,0.3,0.5,0.5,0.8,0.6C294.7,341.7,293.6,341.6,293,341.5z M280.4,339.7
	c1-0.1,2-0.3,2.9-0.5c0.9-0.2,1.9-0.5,2.9-0.8c0.3,1.1,0.6,2.7,0.5,4.1v0c-0.1,2-0.8,3.1-2.2,3.3c-0.6,0.1-1.2,0-1.7-0.4
	C281.3,344.5,280.7,341.6,280.4,339.7z M260.1,341C260.1,341,260.1,341,260.1,341C260.1,341.1,260.1,341,260.1,341
	C260.1,341,260.1,341,260.1,341z M213.2,364c-1.9-0.2-3.1-0.8-3.7-1.7c-0.2-0.3-0.1-0.5-0.1-0.7c0.7-1.4,5.5-2,7.1-2.2l0,0
	c0.2,1.5,0.4,3,0.8,4.4c-0.5,0.1-1.1,0.2-1.7,0.2C214.8,364.1,213.9,364.1,213.2,364z M206.5,362.5c0,0.4,0.1,0.7,0.3,1
	c-1,0.4-1.8-0.3-2.2-0.8c-1.3-1.5-1.1-3.9-0.8-5.6c1.9,0.4,4,0.9,6.2,1c-0.7,0.3-1.3,0.6-1.7,0.9C206.9,360,206.3,361.2,206.5,362.5
	z M207.1,355.2c-2-0.3-3.8-0.8-5.5-1.4c-2.1-0.8-4.2-1.8-6-2.9c-1.8-1.2-3.5-2.6-5.1-4.1c-1.3-1.3-2.7-3-3.9-5.1
	c-0.6-1.1-1.2-2.2-1.7-3.4c-0.4-1.1-0.8-2.3-1.1-3.6c-0.5-2.3-0.7-4.8-0.5-7.3c0.3-4.6,1.8-9.4,4.4-14.2c0.1-0.1,0.1-0.2,0.1-0.4
	c1.5,0.4,3,0.8,4.5,1.2c-4.6,8.1-5.3,16.4-2,23.6c1.8,3.7,4.9,6.9,8.5,8.8c0.9,0.5,1.9,1,2.9,1.4c1,0.4,2.1,0.7,3.1,0.9
	c1.8,0.4,3.4,0.7,4.9,0.8c-0.3,0.1-0.6,0.3-0.9,0.4c-1.2,0.6-1.9,1.6-2.2,2.8C206.6,353.7,206.7,354.5,207.1,355.2z M113.4,319.6
	c0.4-1.3,2.2-2.8,4.8-4.1c0.9,2,1.9,3.6,3,5.1c-1.8,1.1-4.3,2.2-6,1.8c-0.7-0.2-1.2-0.5-1.6-1.2
	C113.3,320.7,113.3,320.2,113.4,319.6z M115.5,304.4c-1.2,0-2.9-0.2-4.5-0.7l0,0c-0.9-0.3-3.1-1.1-2.9-2.8c0.1-0.5,0.5-0.9,1.3-1.2
	c0.3,0,0.5-0.1,0.7-0.2l0.3-0.1c1.7-0.5,3.5-0.2,5.3,0.1C115.5,301.1,115.4,302.7,115.5,304.4z M93.9,196.2c-1.7,1-3.3,2-5,3
	c-0.3-0.5-0.6-0.9-0.9-1.3c1.4-1.3,2.9-2.5,4.4-3.7l0.1-0.1C93,194.7,93.5,195.4,93.9,196.2z M121.8,119.5c-0.2-0.5-0.4-0.9-0.6-1.3
	l0.8-0.6c1.4-1,2.9-2.1,4.4-3.1c0.5,0.9,0.9,1.9,1.2,2.9c-1.5,0.5-2.9,1-4.4,1.6C122.8,119.1,122.3,119.3,121.8,119.5z M123,127.7
	c0-0.5,0.1-1.1,0.1-1.6c2.1-0.2,4.2-0.4,5.9-0.5c0,0.9-0.1,1.7-0.2,2.6C126.8,128,124.9,127.8,123,127.7z M120.5,135.7
	c0.2-0.4,0.5-0.8,0.7-1.2c2.2,0.4,4,0.8,5.7,1.1c-0.3,0.8-0.7,1.5-1,2.1C124,137,122.2,136.3,120.5,135.7z M139,90.5
	c1.7,0.4,2.9,2.1,3.9,4c-1.8,0.7-3.6,1.6-5.6,2.8c1-1.6,1.9-3.8,0.2-5.5c-0.2-0.3-0.5-0.5-0.8-0.6C137.3,90.3,138.4,90.4,139,90.5z
	 M151.6,92.3c-1,0.1-2,0.2-2.9,0.5c-0.9,0.2-1.9,0.5-2.9,0.8c-0.3-1.1-0.6-2.7-0.5-4.1v0c0.1-2,0.8-3.1,2.2-3.3c0.2,0,0.3,0,0.5,0
	c0.4,0,0.9,0.1,1.2,0.4C150.7,87.5,151.3,90.4,151.6,92.3z M171.9,91C171.9,91,171.9,91,171.9,91C171.9,90.9,171.9,91,171.9,91
	C171.9,91,171.9,91,171.9,91z M218.8,68c1.9,0.2,3.1,0.8,3.7,1.7c0.2,0.3,0.1,0.5,0.1,0.7c-0.7,1.4-5.6,2-7.1,2.2l0,0
	c-0.2-1.5-0.4-3-0.8-4.4c0.5-0.1,1.1-0.2,1.7-0.2C217.2,67.9,218.1,67.9,218.8,68z M225.5,69.5c0-0.4-0.1-0.7-0.3-1
	c1-0.4,1.8,0.3,2.2,0.8c1.3,1.5,1.1,3.9,0.8,5.6c-1.9-0.4-4-0.9-6.2-1c0.7-0.3,1.3-0.6,1.7-0.9C225.1,72,225.7,70.8,225.5,69.5z
	 M224.9,76.8c2,0.3,3.8,0.8,5.5,1.4c2.2,0.8,4.2,1.8,6,2.9c1.8,1.2,3.5,2.6,5.1,4.1c1.3,1.3,2.7,3,3.9,5.1c0.6,1.1,1.2,2.2,1.7,3.4
	c0.4,1.1,0.8,2.3,1.1,3.6c0.5,2.3,0.7,4.8,0.5,7.3c-0.3,4.6-1.8,9.4-4.4,14.2c-0.1,0.1-0.1,0.2-0.1,0.4c-1.5-0.4-3-0.8-4.5-1.2
	c4.6-8.1,5.3-16.4,2-23.6c-1.8-3.7-4.9-6.9-8.5-8.8c-0.9-0.5-1.9-1-2.9-1.4c-1-0.4-2.1-0.7-3.1-0.9c-1.8-0.4-3.4-0.7-4.9-0.8
	c0.3-0.1,0.6-0.3,0.9-0.4c1.2-0.6,1.9-1.6,2.2-2.8C225.4,78.3,225.3,77.5,224.9,76.8z M318.6,112.4c-0.4,1.3-2.2,2.8-4.8,4.1
	c-0.9-2-1.9-3.6-3-5.1c1.8-1.1,4.3-2.2,6-1.8c0.7,0.2,1.2,0.5,1.6,1.2C318.7,111.3,318.7,111.8,318.6,112.4z M316.5,127.6
	c1.2,0,2.9,0.2,4.5,0.7l0,0c0.9,0.3,3.1,1.1,2.9,2.8c-0.1,0.5-0.5,0.9-1.3,1.2c-0.3,0-0.5,0.1-0.7,0.2l-0.3,0.1
	c-1.7,0.5-3.5,0.2-5.3-0.1C316.5,130.9,316.6,129.3,316.5,127.6z M357.1,177c-0.3,0.3-0.5,0.3-0.6,0.3c-1.4-0.2-3.3-4.1-4.1-5.7
	c-0.1-0.2-0.1-0.3-0.2-0.4c1.4-0.6,2.7-1.3,4-2.2c0.6,1.1,1.2,2.6,1.5,4C358.1,174.8,357.9,176.2,357.1,177z M337.4,213.5
	c0.3,0.7,0.7,1.6,1,2.7c0.4,1.8,0.5,3.9-1.1,4.3c-2.3,0.6-3.6-3-4-4.6l0,0c-0.1-0.3-0.2-0.6-0.3-0.9
	C334.5,214.6,336,214.1,337.4,213.5z M336.2,281.8c0.9-0.5,1.7-1.1,2.4-1.7c0.6,0.8,1.5,2.2,2,3.8c0.4,1.3,0.5,3.1-0.8,4.4
	c-0.4,0.4-0.8,0.6-1.2,0.5c-0.7,0-1.5-0.6-2.3-1.6c-1.1-1.3-2-2.9-2.6-4C334.6,282.8,335.4,282.3,336.2,281.8z M328.8,285.1
	c0.7-0.2,1.4-0.4,2.3-0.8c0.5,1.7,0.7,3.2,0.7,4.4c0,1.5-0.3,3.4-1.7,3.7c-0.5,0.1-1-0.2-1.5-0.9c-0.1-0.2-0.2-0.4-0.4-0.6l-0.2-0.2
	c-1-1.5-1.4-3.4-1.6-5.1C327.2,285.5,328,285.3,328.8,285.1z M318.3,285.8c1.7,0.2,3.4,0.3,5.3,0.1c-0.1,0.9-0.2,2.1-0.5,3.2
	c-0.4,1.6-1,2.8-1.6,3.3c-0.4,0.3-0.8,0.4-1.2,0.2c-0.9-0.3-1.5-1.3-1.8-2.7l0-0.2C318.1,288.3,318.2,286.7,318.3,285.8z
	 M295.3,331.3c-1.6,0.5-2.9,0.4-3.7-0.4c-0.2-0.2-0.3-0.4-0.3-0.7c0-0.7,0.9-1.7,1.6-2.3c1.1-1.1,2.6-2.1,3.5-2.6
	c0.8,1.5,1.7,3,2.7,4.3C297.7,330.4,296.4,331,295.3,331.3z M192.9,352.4c-0.5,0.8-1.6,2.1-3,3.1c-1.6,1.1-3.1,1.3-4.4,0.6
	c-0.5-0.3-0.8-0.6-0.9-1c-0.2-0.7,0.1-1.6,0.8-2.7c0.9-1.4,2.2-2.8,3-3.7C189.7,350,191.2,351.2,192.9,352.4z M126.2,275.4
	c-0.9-1.3-2-2.5-2.9-3.5c1.5-1,3.4-2,5.3-2c0.3,0,0.7,0,0.9,0.3c0.1,0.1,0.1,0.3,0.1,0.5c-0.3,0-0.6,0.1-0.9,0.2
	C126.9,271.5,126,273.2,126.2,275.4z M106.9,257c0.6-0.7,1.7-2,3.4-2c0.5,0,0.7,0.2,0.8,0.3c0.2,0.3,0.4,1-0.1,2.6
	c-0.3,0.9-0.7,2-1,2.7c-0.2,0.5-0.4,1-0.6,1.4c-0.5-0.2-1.1-0.5-1.7-0.7c-0.7-0.3-1.4-0.6-2.2-0.8c-0.1,0-0.2-0.1-0.3-0.1
	C105.5,259.3,106.1,258,106.9,257z M94.6,218.5c-0.3-0.7-0.7-1.6-1-2.7c-0.4-1.8-0.5-3.9,1.1-4.3c0.2,0,0.3-0.1,0.5-0.1
	c2,0,3.1,3.2,3.6,4.7l0,0c0.1,0.3,0.2,0.6,0.3,0.9C97.5,217.4,96,217.9,94.6,218.5z M81.3,238.3c0.2-1,0.5-2,1-3.1
	c0.4-1,0.8-2,1.3-3c0.6-1.1,1.1-2,1.6-2.7c0.6-0.9,1.3-1.7,2-2.5c1.8-2,3.7-3.5,5.8-4.7c2.1-1.2,4.4-2.1,6.8-2.7
	c4.5-1.1,9.5-1.2,14.8-0.1c0.1,0,0.2,0,0.4,0c0.1,1.6,0.1,3.1,0.3,4.7c-4.1-0.9-8.3-0.9-12-0.2c-4.3,0.9-8.1,2.8-11,5.6
	c-1.5,1.4-2.7,3.1-3.7,4.9c-0.9,1.6-1.5,3.4-2,5.9c-0.4,1.9-0.5,3.9-0.4,6.4c0.1,1,0.2,2.1,0.4,3.2c0.1,0.6,0.2,1.1,0.4,1.6
	c-1.4-1.8-2.9-2.1-4-1.9c-0.8,0.1-1.5,0.4-2.1,1c-0.2-1.7-0.4-3.5-0.4-5.7C80.5,243,80.8,240.8,81.3,238.3z M95.8,150.2
	c-0.9,0.5-1.7,1.1-2.4,1.7c-0.6-0.8-1.5-2.2-2-3.8c-0.4-1.3-0.5-3.1,0.8-4.4c0.4-0.4,0.8-0.6,1.2-0.5c0.7,0,1.5,0.6,2.3,1.6
	c1.1,1.3,2,2.9,2.6,4C97.4,149.2,96.6,149.7,95.8,150.2z M103.2,146.9c-0.7,0.2-1.4,0.4-2.3,0.8c-0.5-1.7-0.7-3.2-0.7-4.4
	c0-1.5,0.3-3.4,1.7-3.7c0.5-0.1,1,0.2,1.5,0.9c0.1,0.2,0.2,0.4,0.4,0.6l0.2,0.2c1,1.5,1.4,3.4,1.6,5.1
	C104.8,146.5,104,146.7,103.2,146.9z M113.7,146.2c-1.1-0.1-2.1-0.2-3.3-0.2c-0.7,0-1.3,0-2,0.1c0.1-0.9,0.2-2.1,0.5-3.2
	c0.4-1.6,1-2.8,1.6-3.3c0.4-0.3,0.8-0.4,1.2-0.2c0.9,0.3,1.5,1.3,1.8,2.7l0,0.2C113.9,143.7,113.8,145.3,113.7,146.2z M136.7,100.7
	c1.6-0.5,2.9-0.4,3.7,0.4c0.2,0.2,0.3,0.4,0.3,0.7c0,0.7-0.9,1.7-1.6,2.3c-1.1,1.1-2.6,2.1-3.5,2.6c-0.8-1.5-1.7-3-2.7-4.3
	C134.3,101.6,135.6,101,136.7,100.7z M188.3,116.2L188.3,116.2c0,0.8-0.3,1.4-1.1,1.8c-0.8,0.5-1.8,0.7-2.6,0.9l-0.1,0
	c-0.3,0.1-0.6,0.1-0.8,0.2c-0.2-1.5-0.5-3-0.9-4.4l0.2,0c0.8-0.2,2.3-0.3,3.5,0C188.1,114.9,188.3,115.6,188.3,116.2z M222.1,79.4
	c-1.1,1.2-5.2,1-6.9,0.9c0.3-1.7,0.4-3.4,0.4-5c1.8,0.2,6.4,0.8,6.8,3.3C222.4,78.9,222.3,79.2,222.1,79.4z M237.4,93.7
	c-1.5,0.9-3,1.8-4.4,2.8c-0.3-0.4-0.6-0.8-1-1.2c1.4-1.3,2.7-2.7,4.2-3.9c0.6,0.7,1.2,1.4,1.6,2.1L237.4,93.7z M235.6,102.5l4.2-1.2
	l1-0.2c0.1,1,0.2,2,0.2,3.1c-0.2,0-0.4,0-0.6,0c-0.7,0-1.4-0.1-2-0.1l-2.6,0C235.7,103.5,235.6,103,235.6,102.5z M234.8,110.5
	l2.4,0.5c0.6,0.1,1.2,0.3,1.8,0.5c0.2,0.1,0.4,0.1,0.6,0.2c-0.3,0.8-0.6,1.5-0.9,2.3c-1.3-0.6-2.6-1.2-3.8-1.7l-0.6-0.3
	C234.5,111.5,234.7,111,234.8,110.5z M224.9,91.1c0.7-1.7,1.5-3.5,2.4-5.3c0.7,0.2,1.6,0.5,2.5,0.9c-1.3,1.6-2.5,3.3-3.5,4.7
	C225.8,91.4,225.4,91.2,224.9,91.1z M227.5,113.4c2.7-2.6,3.6-6.8,2.3-10.9c-0.4-1.4-1-2.6-1.8-3.5c-0.8-0.9-1.7-1.6-2.8-2.2
	c-1.1-0.6-2.2-0.9-3.4-1c-0.9-0.1-1.7,0-2.6,0.1c0.2-0.7,0.2-1.5,0-2.3c1.2-0.2,2.3-0.3,3.4-0.2c1.3,0.1,2.5,0.4,3.6,0.9
	c2.2,0.9,4.1,2.6,5.5,5c1.7,2.9,1.7,6.1,1.3,8.2c-0.4,2.8-1.6,5.4-3.3,7.8c-0.2,0.2-0.3,0.5-0.3,0.7c-1.6-0.2-3.3-0.4-4.9-0.5
	C225.5,115,226.6,114.3,227.5,113.4z M218.6,84.4c1.5,0.9,2.2,1.9,2.1,3.1c-0.1,0.4-0.2,1.6-3.2,1.2c-0.4-0.1-0.9-0.2-1.4-0.3
	c-0.5-0.1-0.9-0.2-1.3-0.3c-0.6-0.2-1.1-0.3-1.5-0.5c0.6-1.5,1.1-3,1.4-4.6C215.8,83.2,217.3,83.6,218.6,84.4z M216.6,95.4
	c0,0.5-0.3,0.8-0.8,0.9c-0.5,0.1-1.2,0.1-2.1-0.2c-1.3-0.3-2.8-1-3.8-1.5c-0.1,0-0.2-0.1-0.3-0.1c1.1-1.7,1.9-3.1,2.5-4.5
	c0.9,0.5,2.1,1.2,3,2C216.2,93.1,216.8,94.2,216.6,95.4z M211.6,103.5c-0.2,0.5-0.4,0.6-0.5,0.6c-0.5,0.2-1.3-0.2-2.5-0.9
	c-1.2-0.8-2.6-2.1-3.4-2.9c1-1,1.8-2.1,2.7-3.1c0.1-0.1,0.2-0.2,0.2-0.3C209.8,98.2,212.4,101.1,211.6,103.5z M205.2,109.9
	c-0.5,0.4-1.4,0.8-3.1-1c-1-1.1-2-2.6-2.5-3.5c1.2-0.9,2.4-2,3.6-3.2c0.8,1,1.6,2.5,2.1,3.8C205.9,107.3,206.3,109.1,205.2,109.9z
	 M198.3,114.4c-0.3,0.3-0.5,0.3-0.6,0.3c-0.3,0-0.9-0.3-1.9-1.7c-0.9-1.2-1.6-2.7-2.1-3.6c1.3-0.7,2.6-1.5,3.9-2.4
	C198.6,109.1,199.8,112.8,198.3,114.4z M191.7,116.3c-0.1,0.3-0.2,0.6-0.5,0.7c-0.2,0.1-0.4,0-0.5,0c0.1-0.3,0.1-0.6,0.1-0.9
	c0-1.5-0.7-3.2-3.5-3.9c0.6-0.2,1.2-0.4,1.9-0.7c0.8-0.3,1.5-0.6,2.2-0.9C191.9,112.3,192.2,114.5,191.7,116.3z M185.1,110.1
	c-0.8,0.7-1.9,1.3-2.8,1.8l-0.2,0.1c0,0,0,0-0.1,0c-0.5-1.6-1.2-3.2-1.9-4.7c0.2-0.1,0.4-0.2,0.6-0.2c0.9-0.4,2.2-0.8,3.4-0.8h0
	c0,0,0,0,0,0c1.5,0,1.9,0.7,2,1.2C186.4,108.4,186.1,109.3,185.1,110.1z M179.6,104.5l-0.1,0.1c-0.2,0.2-0.4,0.3-0.6,0.4
	c-0.8-1.4-1.8-2.6-2.8-3.8c0.5-0.5,1.3-1.1,2.3-1.7l0.3-0.2c0.4-0.2,0.7-0.4,1-0.5c0.5-0.2,0.9-0.3,1.3-0.3c0.8-0.1,1.4,0.2,1.8,0.8
	c0.5,0.8,0.4,1.7-0.4,2.7C181.6,103,180.4,103.9,179.6,104.5z M176.6,95.9l-0.1,0.2c-0.7,1.4-1.7,2.6-2.3,3.3
	c-1.2-1.2-2.6-2.2-4.2-3.2c0.6-0.7,1.4-1.6,2.3-2.3l0,0c1.3-1.1,2.4-1.6,3.2-1.7c0.5,0,0.9,0.1,1.1,0.5
	C177.2,93.4,177.2,94.5,176.6,95.9z M181.5,120.6c0,0.1,0.1,0.3,0.1,0.4c-1.5,0.5-2.9,1.1-4.4,1.7c-0.5-4.2-1.7-8.2-3.5-11.5
	c-1-1.8-2.3-3.5-3.7-5c-1.5-1.5-3.2-2.8-5-3.8c-3.5-1.9-7.6-2.7-12.1-2.2c-2.1,0.3-4.2,0.8-6.2,1.6c-1.5,0.6-3,1.4-4.4,2.3
	c0.9-1.3,1.4-2.8,0.6-4.4c-0.3-0.8-0.9-1.3-1.6-1.7c0.7-0.3,1.4-0.7,2-1c1.1-0.5,2.2-0.8,3.2-1.1c1.1-0.3,2.2-0.6,3.3-0.8
	c1.1-0.2,2.2-0.3,3.3-0.4c4.2-0.3,8.6,0.4,12.6,2.1c4.6,2,8.3,5.3,11,9.7C179.2,110.6,180.8,115.3,181.5,120.6z M103.7,158.2
	c0.8-0.4,1.6-0.7,2.4-0.9c0.4,1.8,0.9,3.7,1.4,5.5c-0.5,0.2-1,0.3-1.5,0.6c-0.8-1.6-1.5-3.3-2.3-5L103.7,158.2z M97.4,163
	c1.2,1.7,2.3,3.3,3.4,4.8c-0.3,0.4-0.5,0.8-0.8,1.2c-1.4-1.3-2.9-2.6-4.3-3.9C96.2,164.3,96.7,163.7,97.4,163z M114.1,162.3
	c0-1.7,0.1-3.4,0.3-5.2l0-0.3c1,0.2,2,0.4,3,0.8l-0.9,2.4c-0.3,0.8-0.6,1.6-0.9,2.5C115.1,162.5,114.6,162.4,114.1,162.3z
	 M121.4,165.5c0.5-0.9,1.1-1.8,1.6-2.7c0.3-0.5,0.6-1,0.9-1.5c0.7,0.5,1.3,1,1.9,1.6l-2.7,2.8l-0.6,0.7
	C122.3,166.1,121.9,165.8,121.4,165.5z M94.4,246.1c-1.9-0.2-3.8-0.4-5.7-0.6c0-0.9,0-1.8,0.1-2.6c1.8,0.6,3.7,1.3,5.6,1.9
	C94.4,245.2,94.4,245.7,94.4,246.1z M99,228c0.9-0.4,1.9-0.8,2.9-1.1l0.3,1l1.2,4c-0.5,0.2-0.9,0.4-1.4,0.6l-0.3-0.4
	C100.9,230.8,99.9,229.4,99,228z M91.2,235.3c0.4-0.8,0.9-1.5,1.5-2.2l2.1,1.9l2.3,1.8c-0.3,0.4-0.6,0.9-0.9,1.3
	C94.5,237.2,92.8,236.3,91.2,235.3z M109.5,225.8c0.8,0,1.6,0.1,2.5,0.1c-0.1,0.7-0.2,1.4-0.3,2.1l-0.3,2.7c-0.5,0-1-0.1-1.5-0.1
	c0,0,0,0,0,0c0-0.5-0.1-1.1-0.1-1.6C109.6,228,109.5,226.9,109.5,225.8z M109.4,216.1L109.4,216.1c0.5-2.4,1.2-4,2-4.5
	c0.3-0.2,0.7-0.2,1.1-0.1c1.7,0.5,1.7,2.7,1.4,4.5c0,0.3-0.1,0.6-0.1,0.8c-1.5-0.3-3-0.4-4.5-0.5L109.4,216.1z M113.7,208.2
	c0.3,0.2,0.6,0.4,0.6,0.8c0,0.2-0.1,0.3-0.2,0.5c-0.3-0.1-0.6-0.3-0.9-0.4c-1.3-0.4-2.6-0.2-3.6,0.7c-0.5,0.4-0.9,0.9-1.2,1.5
	c0-1.5-0.1-3-0.2-4.5C110,206.9,112.1,207.2,113.7,208.2z M114.8,236.8c-3.3-1.7-7.6-1.3-11.1,1.1c-4.5,3.1-4.9,8.2-3.1,12.1
	c-0.8,0-1.5,0.3-2.1,0.7c-1.2-2.3-1.7-4.6-1.5-6.8c0.1-1.3,0.4-2.5,0.9-3.5c0.5-1.2,1.3-2.2,2.1-3.2c4-4.5,10.8-4.7,15.8-3
	c0.3,0.1,0.5,0.1,0.8,0c0.3,1.6,0.6,3.3,1,4.9C117,238.2,116,237.4,114.8,236.8z M122.9,176.9c0-1.1-0.3-2.4-0.9-3.6
	c-1.7-3.3-5.4-5.5-9.6-5.6c-0.1,0-0.2,0-0.3,0c-5.3,0-8.6,3.8-9.3,8c-0.6-0.4-1.4-0.6-2.2-0.7c0.1-0.6,0.1-1,0.2-1.5
	c0.2-0.6,0.4-1.2,0.6-1.8c0.5-1.2,1.1-2.2,1.9-3.1c1.7-1.9,4-3.2,6.4-3.7c5.9-1.2,11.7,2.7,14.6,6.8c0.2,0.3,0.4,0.4,0.6,0.5
	C124.2,173.8,123.5,175.4,122.9,176.9z M129.8,163.4c-2.9-3.2-6.1-5.6-9.6-7.2c-4-1.8-8.1-2.5-12.1-2c-4,0.5-7.7,2.3-11.1,5.3
	c-1.6,1.5-3,3.2-4.1,4.9c-0.9,1.5-1.6,2.9-2.2,4.4c0-0.3,0-0.7-0.1-1c-0.2-1.3-0.9-2.3-2-3c-0.7-0.4-1.5-0.6-2.3-0.4
	c1-1.9,1.9-3.4,3-4.8c1.5-2,3.1-3.6,4.6-4.8c3.2-2.8,7.2-4.7,11.4-5.7c4.9-1,9.9-0.6,14.6,1.4c4.3,1.8,8.4,4.7,12.1,8.6
	c0.1,0.1,0.2,0.2,0.3,0.3C131.5,160.7,130.6,162,129.8,163.4z M139.5,124.2c2.8,0.1,6.1,1,6.8,3.3c0.2,0.5,0,0.7,0,0.8
	c-0.3,0.4-1.1,0.6-2.6,0.7c-1.7,0.1-3.5-0.2-4.4-0.3c0.2-1.4,0.3-2.8,0.3-4.1L139.5,124.2z M149.8,109.7c-0.4-1.9-0.8-3.8-1.2-5.7
	c0.8-0.3,1.7-0.5,2.6-0.7c-0.1,2-0.1,3.9-0.1,5.8C150.7,109.3,150.3,109.5,149.8,109.7z M158,108.8c0.3-1.8,0.7-3.5,1.1-5.6
	c0.9,0.2,1.8,0.4,2.5,0.7c-0.8,1.9-1.5,3.7-2.1,5.3C159,109.1,158.5,108.9,158,108.8z M169.2,119.5c0.9-0.4,1.9-0.8,2.8-1.2
	c0.6-0.2,1.1-0.5,1.7-0.7c0.2,0.8,0.5,1.6,0.6,2.4l-2.3,0.5c-0.9,0.2-1.7,0.3-2.4,0.5C169.5,120.5,169.4,120,169.2,119.5z
	 M165.1,112.7c0.9-1.2,1.8-2.3,2.8-3.5c0.2-0.3,0.4-0.5,0.6-0.8c0.7,0.7,1.3,1.5,1.9,2.4c-0.5,0.3-1,0.7-1.5,1c-1,0.6-1.9,1.3-2.9,2
	C165.8,113.4,165.4,113,165.1,112.7z M132.5,151.3c1.5-0.7,2.1-0.2,2.4,0.2c0.5,0.6,0.5,1.3,0.2,2.2c-0.3,0.8-1,1.6-1.6,2.2
	l-0.1,0.1c-0.2,0.2-0.4,0.4-0.6,0.6c-1.1-1.1-2.2-2.1-3.3-3.1l0.1-0.1C130.3,152.8,131.4,151.8,132.5,151.3L132.5,151.3z M165,126.2
	c0.6-3.7-1.2-7.7-4.5-10.2c-2.2-1.6-4.7-2.3-7.1-1.9c-1.1,0.2-2.2,0.6-3.3,1.2c-0.5,0.3-1,0.6-1.5,1c-0.2,0.2-0.4,0.4-0.6,0.6
	c-0.3-0.7-0.7-1.3-1.4-1.8c0.7-0.8,1.6-1.5,2.6-2.1c1.1-0.7,2.3-1.2,3.4-1.4c2.6-0.5,5.1-0.3,7.4,0.8c5.5,2.5,7.9,9,7.8,14.1
	c0,0.3,0.1,0.6,0.2,0.8c-1.5,0.8-3,1.7-4.4,2.5C164.3,128.7,164.8,127.6,165,126.2z M144.2,109.2c0.2,0.4,0.7,1.4-1.9,2.9
	c-0.7,0.4-1.6,0.7-2.5,1.1c-0.6,0.2-1.1,0.4-1.5,0.5c-0.4-1.6-0.9-3.1-1.5-4.5C138.6,108.3,143,106.8,144.2,109.2z M145.6,118
	c0.2,0.3,0.2,0.6,0.2,0.8c-0.2,0.5-0.8,1-2,1.4l0,0c-1.4,0.5-3.1,0.9-4.3,1.1c-0.1-1.7-0.3-3.5-0.6-5.2
	C141,115.9,144.4,115.9,145.6,118z M142.9,133.2c1.2,0.8,2.5,1.9,2.1,3.2c-0.1,0.4-0.4,1.5-3.1,1c-1.5-0.3-3.1-0.9-4.1-1.3
	c0.4-1.5,0.8-3.1,1-4.7C139.9,131.7,141.5,132.4,142.9,133.2z M142,144.2c-0.1,0.4-0.2,0.5-0.3,0.6c-0.3,0.2-1,0.3-2.5-0.2
	c-1.4-0.5-2.9-1.2-3.8-1.7c0.6-1.3,1.2-2.7,1.7-4.2C139.1,139.8,142.3,142.1,142,144.2z M137.8,150.5c-0.1,0.2-0.3,0.2-0.4,0.3
	c-0.1-0.3-0.3-0.5-0.5-0.8c-0.6-0.8-1.6-1.6-3-1.6c-0.6,0-1.3,0.1-2.1,0.5c0.4-0.5,0.7-1.1,1.1-1.7c0.5-0.7,0.9-1.4,1.3-2.1
	c1.4,1.2,3,2.7,3.6,4.5C137.8,149.9,137.9,150.3,137.8,150.5z M128.8,148.5c-0.2,1.1-0.8,2.2-1.2,3.1l-0.1,0.1c0,0,0,0,0,0.1
	c-1.4-1-2.8-1.9-4.3-2.7c0.1-0.2,0.2-0.3,0.3-0.5c0.5-0.8,1.4-2,2.3-2.6l0,0c1.3-0.9,1.9-0.6,2.4-0.3
	C128.9,146.3,129.1,147.2,128.8,148.5z M121.1,147.2l-0.1,0.2c-0.1,0.2-0.1,0.4-0.2,0.6c-1.5-0.6-3-1.1-4.5-1.5
	c0.2-0.7,0.4-1.7,0.8-2.7l0.1-0.2c0.2-0.4,0.4-0.8,0.6-1.1c0.3-0.4,0.6-0.8,0.9-1c0.6-0.6,1.2-0.7,1.9-0.4c0.9,0.3,1.3,1.1,1.3,2.4
	C121.8,144.7,121.4,146.1,121.1,147.2z M87.3,167.5c0.3,0,0.5,0.2,0.6,0.4c0.4,0.6,0.3,1.8,0.1,2.8c-0.3,1.6-0.9,3.2-1.3,4.2
	c-1.5-0.8-3.1-1.4-4.7-1.9C83.3,170.1,85.1,167.1,87.3,167.5z M95.1,171.8c1,0.5,1,1.6,0.2,3.4c-0.3,0.7-0.8,1.5-1.4,2.4
	c-0.4,0.5-0.7,1-0.9,1.3c-1.3-1-2.6-1.9-3.9-2.8C90.1,174.4,92.7,170.5,95.1,171.8z M101.5,178.1c0.3,0.1,0.6,0.3,0.6,0.6
	c0.1,0.5-0.1,1.3-0.8,2.4c-0.7,1.2-1.9,2.5-2.8,3.4c-1.1-1.3-2.3-2.6-3.5-3.8C96.4,179.1,99.2,177.1,101.5,178.1z M107.6,185.4
	c0.4,0.3,0.4,0.6,0.4,0.6c0,0.5-0.6,1.2-1.7,2.1c-1.2,0.9-2.7,1.8-3.7,2.4c-0.7-1.2-1.4-2.4-2.2-3.5c-0.1-0.1-0.1-0.2-0.2-0.3
	C101.6,185.8,105.3,183.7,107.6,185.4z M108.2,192c1.4-0.1,3.1,0.1,3.6,1.4c0.2,0.6,0.3,1.5-1.9,2.6c-1.3,0.7-3,1.1-4.1,1.3
	c-0.5-1.4-1.2-2.9-2-4.4C105,192.5,106.6,192.1,108.2,192z M110.5,199.7c1.8,0.2,2.9,0.8,3.4,1.7c0.2,0.3,0.1,0.5,0.1,0.7
	c-0.1,0.3-0.6,0.8-2.2,1.3c-1.3,0.4-3,0.7-4.1,0.9c-0.2-1.5-0.6-2.9-1.1-4.4C107.5,199.7,109,199.5,110.5,199.7z M101,252.7
	c0.4-0.1,0.7,0,0.9,0.1c0.3,0.2,0.7,0.8,0.7,2.3c0,1.6-0.1,3.5-0.3,4.4c-1.6-0.4-3.3-0.7-5.1-1C97.6,256.7,98.5,253.2,101,252.7z
	 M146.4,292.3c-3.6,0.5-6.9,3.4-8.3,7.4c-1.8,5.2,0.9,9.6,4.6,11.6c-0.6,0.5-1,1.1-1.3,1.9c-1-0.5-2-1.1-2.9-1.8
	c-0.8-0.7-1.6-1.6-2.3-2.8c-0.7-1.2-1.1-2.3-1.4-3.4c-0.2-1.3-0.3-2.5-0.2-3.8c0.3-2.7,1.6-5.2,3.7-7.4c2-2,4.5-3.5,7.2-4.3
	c0.3-0.1,0.5-0.3,0.7-0.5c1.2,1.2,2.5,2.3,3.8,3.4C149,292.1,147.7,292.1,146.4,292.3z M135.6,286.5c0.7-0.5,1.4-0.9,2.1-1.3
	c0.6,1.1,1.2,2.2,1.8,3.2c0.2,0.3,0.4,0.7,0.6,1c-0.4,0.3-0.9,0.6-1.3,0.9l-1.7-1.9c-0.4-0.5-0.8-0.9-1.2-1.4
	C135.8,286.8,135.7,286.7,135.6,286.5z M128.4,294.4c0.5-0.9,1-1.8,1.7-2.6c1.2,1,2.4,1.9,3.6,2.8l0.6,0.4c-0.3,0.4-0.5,0.9-0.7,1.3
	c-0.4-0.2-0.9-0.3-1.3-0.5C130.9,295.4,129.6,294.9,128.4,294.4z M132.1,304.3c-1.6,0.2-3.6,0.5-5.7,0.7c-0.1-0.9-0.1-1.8-0.1-2.6
	c2.1,0.2,3.9,0.3,5.7,0.4C132,303.2,132,303.8,132.1,304.3z M135.4,311.8c-1.7,1-3.3,1.9-5,2.9c-0.6-0.8-1.1-1.5-1.5-2.2
	c1.7-0.5,3.5-1.1,5.6-1.8C134.8,311.1,135.1,311.4,135.4,311.8z M123.8,299.6c-0.7,4-0.1,8.4,1.7,12.1c0.5,1.1,1,2,1.5,2.8
	c0.6,0.9,1.2,1.7,1.9,2.6c0.7,0.8,1.4,1.6,2.2,2.4c0.4,0.4,0.8,0.7,1.3,1.1c-1.8-0.5-3.3-0.2-4.4,0.8c-0.6,0.6-1,1.3-1.1,2.1
	c-6.3-6.3-9.5-14.8-8.7-22.9c0.1-1.3,0.3-2.5,0.6-3.7c0.3-1.2,0.7-2.3,1.3-3.5c1-2.2,2.3-4.3,3.9-6.2c3-3.5,7-6.5,11.9-8.8
	c0.1-0.1,0.2-0.1,0.3-0.2c1,1.2,2,2.4,3,3.6C130.8,285.5,125.3,291.8,123.8,299.6z M129.6,273.1c0.2-0.1,0.4-0.1,0.6-0.1
	c0.5,0,0.9,0.2,1.5,0.6c0.5,0.4,1.1,1.1,1.6,2l0.1,0.2c0.2,0.3,0.3,0.5,0.4,0.8c-1.4,0.7-2.7,1.4-3.9,2.2l-0.1-0.1
	c-0.6-1.3-1-2.4-1.2-3.3C128.5,274.2,128.8,273.4,129.6,273.1z M114.7,260c1.1-0.9,2.6-1.7,3.7-1c0.5,0.3,1.1,1,0,3.2
	c-0.7,1.3-1.8,2.7-2.5,3.5c-0.5-0.3-1-0.6-1.5-0.9l-0.6-0.4c-0.7-0.4-1.4-0.8-2.1-1.2C112.4,262.3,113.5,261,114.7,260z
	 M124.8,264.2c0.3,0.2,0.4,0.4,0.4,0.5c0.1,0.3,0,1-1,2.3c-0.8,1.2-2,2.4-2.8,3.1c-1.1-1.1-2.3-2-3.5-2.9
	C119.7,265.6,122.9,263.3,124.8,264.2z M127.7,280.4c-1.4,1-2.7,2.1-3.9,3.3c-0.1-0.1-0.2-0.3-0.4-0.4c-0.9-1.1-1.5-2.2-1.8-3
	c-0.4-1.1-0.2-1.9,0.5-2.3l0,0c0.3-0.2,0.7-0.3,1.1-0.3c0.5,0,1.1,0.2,1.7,0.6C125.9,278.7,126.9,279.6,127.7,280.4
	C127.6,280.3,127.6,280.4,127.7,280.4z M122,285.6c-1,1.2-2,2.5-2.8,3.8c-0.6-0.4-1.5-0.9-2.3-1.6l-0.3-0.2
	c-2.6-2.4-1.7-3.5-1.4-3.9c0.6-0.7,1.4-0.9,2.7-0.5c1.2,0.4,2.5,1.2,3.3,1.8l0.2,0.2C121.7,285.3,121.8,285.5,122,285.6z
	 M114.2,290.6c1.5,0.2,3,0.8,3.8,1.1c-0.7,1.6-1.3,3.3-1.8,5c-0.9-0.4-1.9-0.9-2.9-1.5c-0.7-0.4-1.3-0.8-1.7-1.2
	c-0.5-0.4-0.8-0.9-0.9-1.3c-0.2-0.5-0.1-0.9,0.2-1.3c0.6-0.7,1.7-1,3.1-0.9L114.2,290.6z M110.7,296.5
	C110.7,296.5,110.7,296.5,110.7,296.5C110.7,296.5,110.7,296.5,110.7,296.5C110.7,296.5,110.7,296.5,110.7,296.5z M144.6,313.2
	c0.3-0.3,0.5-0.4,0.8-0.4c0,0,0,0,0,0c0.4,0,1,0.3,2,1.5c1,1.3,1.9,2.8,2.4,3.7c-1.6,0.6-3.1,1.3-4.7,2.2
	C144.1,318.5,142.8,315.2,144.6,313.2z M153.4,309.7c0.3-0.2,0.5-0.2,0.6-0.2c0.1,0,0.1,0,0.2,0c0.3,0.1,0.9,0.6,1.4,2.2
	c0.5,1.6,0.9,3.4,1.1,4.3c-1.3,0.3-2.6,0.6-4,1c-0.1,0-0.2,0.1-0.4,0.1C151.9,315.3,151.1,311.3,153.4,309.7z M179.7,313
	c0.4-0.6,1.1-0.8,1.8-0.8c0.9,0,1.8,0.3,2.7,0.7l0.2,0.1c0.3,0.1,0.5,0.3,0.8,0.4c-0.7,1.4-1.3,2.7-1.9,4.1l-0.1-0.1
	c-1.3-0.7-2.3-1.4-2.9-2C179.7,314.8,179.1,313.9,179.7,313z M170.6,308.6c0.4-0.1,0.6,0.1,0.7,0.1c0.3,0.2,0.6,0.8,0.6,2.4
	c0,1.4-0.3,3.1-0.4,4.1c-1.5-0.2-3.1-0.3-4.5-0.3C167.3,312.7,168.5,309,170.6,308.6z M177,311c0.2-0.2,0.6-0.4,0.9-0.3
	c0.2,0,0.3,0.2,0.4,0.3c-0.2,0.2-0.4,0.4-0.6,0.7c-0.8,1.2-1,2.4-0.5,3.6c0.2,0.5,0.6,1.1,1,1.6c-1.3-0.5-2.8-0.8-4.3-1.1
	C174.6,314.1,175.5,312.2,177,311z M182.3,320C182.3,320,182.3,320,182.3,320c-0.4,1.6-0.8,3.3-1.1,4.9c-0.2,0-0.4-0.1-0.6-0.1
	c-1.4-0.4-2.5-0.9-3.3-1.4c-0.6-0.4-1.3-1.2-1-2.2c0.3-0.8,1.1-1.3,2.4-1.5C180,319.7,181.3,319.8,182.3,320z M180.1,327.6
	c0.3,0,0.5,0,0.7,0c-0.1,1.6-0.1,3.2,0,4.7c-1,0.1-2,0.1-2.8,0l-0.4,0c-2.3-0.3-3.5-1.1-3.4-2.3c0.1-2.2,3.6-2.5,5.6-2.5
	L180.1,327.6z M177.3,336.3l0.1-0.1c1.2-0.6,2.6-1.1,3.8-1.3c0.3,1.7,0.8,3.4,1.5,5.1c-0.9,0.2-2.1,0.4-3.2,0.5
	c-0.8,0.1-1.5,0.1-2.1,0c-0.6-0.1-1.1-0.2-1.5-0.5c-0.4-0.3-0.6-0.6-0.6-1.1C175.3,337.9,176,337.1,177.3,336.3z M178.2,343.1
	C178.2,343.1,178.2,343.1,178.2,343.1C178.1,343.1,178.1,343.1,178.2,343.1C178.1,343.1,178.2,343.1,178.2,343.1z M178.9,346.5
	c0.2-0.2,0.4-0.4,0.4-0.6l0.2-0.2c1.1-1.4,2.7-2.3,4.4-3c0.8,1.4,1.7,2.8,2.7,4c-1,0.6-2.5,1.6-4,2.1l0,0c-0.9,0.3-3.2,1-4-0.5
	C178.3,347.8,178.5,347.2,178.9,346.5z M117.3,216c0-54.4,44.3-98.7,98.7-98.7s98.7,44.3,98.7,98.7s-44.3,98.7-98.7,98.7
	S117.3,270.4,117.3,216z M239.1,79.6c0.5-0.8,1.6-2.1,3-3.1c1.6-1.1,3.1-1.3,4.4-0.6c0.5,0.3,0.8,0.6,0.9,1c0.2,0.7-0.1,1.6-0.8,2.7
	c-0.9,1.4-2.2,2.8-3,3.7C242.3,82,240.8,80.8,239.1,79.6z M317.8,141.4c-1.5-0.2-3-0.8-3.8-1.1c0.7-1.6,1.3-3.3,1.8-5
	c0.8,0.4,1.9,0.9,2.9,1.5c0.7,0.4,1.3,0.8,1.7,1.2c0.5,0.4,0.8,0.9,0.9,1.3c0.2,0.5,0.1,0.9-0.2,1.3c-0.6,0.7-1.7,1-3.1,0.9
	L317.8,141.4z M321.3,135.5C321.3,135.5,321.3,135.5,321.3,135.5C321.3,135.5,321.3,135.5,321.3,135.5
	C321.3,135.5,321.3,135.5,321.3,135.5z M305.8,156.6c0.9,1.3,1.9,2.5,2.9,3.5c-1.5,1-3.4,2-5.3,2c-0.3,0-0.7,0-0.9-0.3
	c-0.1-0.1-0.1-0.3-0.1-0.5c0.3,0,0.6-0.1,0.9-0.2C305.1,160.5,306,158.8,305.8,156.6z M325.1,175c-0.6,0.7-1.7,2-3.4,2
	c-0.5,0-0.7-0.2-0.8-0.3c-0.2-0.3-0.4-1,0.1-2.6c0.3-0.9,0.7-2,1-2.7c0.2-0.5,0.4-1,0.6-1.4c0.5,0.2,1.1,0.5,1.7,0.7
	c0.7,0.3,1.4,0.6,2.2,0.8c0.1,0,0.2,0.1,0.3,0.1C326.5,172.7,325.9,174,325.1,175z M299.5,280.7c-1.5,0.7-2.1,0.2-2.4-0.2
	c-0.5-0.6-0.5-1.3-0.2-2.2c0.3-0.8,1-1.6,1.6-2.3l0.1-0.1c0.2-0.2,0.4-0.4,0.6-0.6c1.1,1.1,2.2,2.1,3.3,3l-0.1,0.1
	C301.7,279.2,300.6,280.2,299.5,280.7L299.5,280.7z M292.5,307.8c-2.8-0.1-6.1-1-6.8-3.3c-0.2-0.5,0-0.7,0-0.8
	c0.3-0.4,1.1-0.6,2.6-0.7c0.2,0,0.4,0,0.6,0c1.4,0,2.8,0.2,3.8,0.3c-0.2,1.4-0.3,2.8-0.3,4.1L292.5,307.8z M263,320.2
	c1-0.6,1.9-1.3,2.9-2c0.3,0.4,0.7,0.8,1,1.1c-0.9,1.2-1.8,2.3-2.8,3.5c-0.2,0.2-0.4,0.5-0.6,0.8c-0.7-0.7-1.3-1.5-1.9-2.4
	C262,320.9,262.5,320.5,263,320.2z M260,311.5c0.8-0.1,1.6-0.3,2.4-0.5c0.1,0.5,0.3,1,0.4,1.5c-0.9,0.4-1.9,0.8-2.8,1.2
	c-0.6,0.2-1.1,0.5-1.7,0.7c-0.2-0.8-0.5-1.6-0.6-2.4L260,311.5z M274,323.2c-0.3,1.8-0.7,3.5-1.1,5.6c-0.9-0.2-1.8-0.4-2.5-0.7
	c0.8-1.8,1.5-3.7,2.1-5.3C273,322.9,273.5,323.1,274,323.2z M282.2,322.3c0.4,1.9,0.8,3.8,1.2,5.7c-0.8,0.3-1.7,0.5-2.6,0.7
	c0.1-2,0.1-3.9,0.1-5.8C281.3,322.7,281.7,322.5,282.2,322.3z M267,305.8c-0.6,3.7,1.2,7.7,4.5,10.2c2.2,1.6,4.7,2.3,7.1,1.9
	c1.1-0.2,2.2-0.6,3.3-1.2c0.5-0.3,1-0.6,1.5-1c0.2-0.2,0.4-0.4,0.6-0.6c0.3,0.7,0.7,1.3,1.4,1.8c-0.7,0.8-1.6,1.5-2.6,2.1
	c-1.1,0.7-2.3,1.2-3.4,1.4c-2.6,0.5-5.1,0.3-7.4-0.8c-5.5-2.5-7.9-9.1-7.8-14.1c0-0.3-0.1-0.6-0.2-0.8c1.5-0.8,3-1.6,4.4-2.5
	C267.7,303.3,267.2,304.5,267,305.8z M299.6,272.6c0.9-1.3,1.7-2.6,2.5-3.9c2.9,3.2,6.1,5.6,9.6,7.2c4,1.8,8.1,2.5,12.1,2
	c4-0.5,7.7-2.3,11.1-5.3c1.6-1.5,3-3.2,4.1-4.9c0.9-1.5,1.6-2.9,2.2-4.4c0,0.3,0,0.7,0.1,1c0.2,1.3,0.9,2.3,2,3
	c0.7,0.4,1.5,0.6,2.3,0.4c-1,1.9-1.9,3.4-3,4.8c-1.5,2-3.1,3.6-4.6,4.8c-3.2,2.8-7.2,4.7-11.4,5.7c-4.9,1-9.9,0.6-14.6-1.4
	c-4.3-1.8-8.4-4.7-12.1-8.6C299.9,272.7,299.7,272.7,299.6,272.6z M337.6,185.9c1.9,0.2,3.8,0.4,5.7,0.6c0,0.9,0,1.8-0.1,2.6
	c-1.8-0.6-3.7-1.3-5.6-1.9C337.6,186.8,337.6,186.3,337.6,185.9z M322.5,206.2c-0.8,0-1.6-0.1-2.5-0.1c0.1-0.7,0.2-1.5,0.3-2.2
	l0.3-2.7c0.5,0,1,0.1,1.6,0.1c0,0,0,0,0,0c0,0.5,0.1,1.1,0.1,1.6C322.4,204,322.5,205.1,322.5,206.2z M330,199.5l0.3,0.4
	c0.9,1.3,1.8,2.7,2.7,4.2c-0.9,0.4-1.9,0.8-2.9,1.1l-0.3-1l-1.2-4C329.1,199.9,329.5,199.7,330,199.5z M340.8,196.7
	c-0.4,0.8-0.9,1.5-1.5,2.2l-2.1-1.9l-2.3-1.8c0.3-0.4,0.6-0.9,0.9-1.3C337.5,194.8,339.1,195.7,340.8,196.7z M322.6,215.9
	L322.6,215.9c-0.5,2.4-1.2,4-2,4.5c-0.3,0.2-0.7,0.2-1.1,0.1c-1.7-0.5-1.7-2.7-1.4-4.5c0-0.3,0.1-0.6,0.1-0.8c1.5,0.3,3,0.4,4.5,0.5
	L322.6,215.9z M317.2,195.2c3.2,1.7,7.6,1.3,11.1-1.1c4.5-3.1,4.9-8.3,3.1-12.1c0.8,0,1.5-0.3,2.1-0.7c1.2,2.3,1.7,4.6,1.5,6.8
	c-0.1,1.3-0.4,2.5-0.9,3.5c-0.5,1.2-1.3,2.2-2.1,3.2c-4,4.5-10.8,4.7-15.8,3c-0.3-0.1-0.5-0.1-0.8,0c-0.3-1.6-0.6-3.3-1-4.9
	C315,193.8,316,194.6,317.2,195.2z M309.1,255.1c0,1.1,0.3,2.4,0.9,3.6c1.7,3.3,5.4,5.5,9.6,5.6c5.5,0.1,8.9-3.8,9.6-8
	c0.6,0.4,1.4,0.6,2.2,0.7c-0.1,0.6-0.1,1-0.2,1.5c-0.2,0.6-0.4,1.2-0.6,1.8c-0.5,1.2-1.1,2.2-1.9,3.1c-1.7,1.9-4,3.2-6.4,3.7
	c-6,1.2-11.7-2.7-14.6-6.8c-0.2-0.3-0.4-0.4-0.6-0.5C307.8,258.2,308.5,256.6,309.1,255.1z M328.3,273.8c-0.8,0.4-1.6,0.7-2.4,0.9
	c-0.4-1.8-0.9-3.7-1.4-5.5c0.5-0.2,1-0.3,1.5-0.6c0.8,1.6,1.5,3.3,2.3,5L328.3,273.8z M317.9,269.7c0,1.7-0.1,3.4-0.3,5.2l0,0.3
	c-1-0.2-2-0.4-3-0.8l0.9-2.4c0.3-0.8,0.6-1.6,0.9-2.5C316.9,269.5,317.4,269.6,317.9,269.7z M310.6,266.5c-0.5,0.9-1.1,1.8-1.6,2.7
	c-0.3,0.5-0.6,1-0.9,1.5c-0.7-0.5-1.3-1-1.9-1.6l2.7-2.8l0.6-0.7C309.7,265.9,310.1,266.2,310.6,266.5z M334.6,269
	c-1.2-1.7-2.3-3.3-3.4-4.8c0.3-0.4,0.5-0.8,0.8-1.2c1.4,1.3,2.9,2.6,4.3,3.9C335.8,267.7,335.3,268.3,334.6,269z M318.3,223.8
	c-0.3-0.2-0.6-0.4-0.6-0.8c0-0.2,0.1-0.3,0.2-0.5c0.3,0.1,0.6,0.3,0.9,0.4c1.3,0.4,2.6,0.2,3.6-0.7c0.5-0.4,0.9-0.9,1.2-1.5
	c0,1.5,0.1,3,0.2,4.5C322,225.1,319.9,224.8,318.3,223.8z M331,179.3c-0.4,0.1-0.7,0-0.9-0.1c-0.3-0.2-0.7-0.8-0.7-2.3
	c0-1.6,0.1-3.5,0.3-4.4c1.6,0.4,3.3,0.7,5.1,1C334.4,175.3,333.5,178.8,331,179.3z M285.6,139.7c3.6-0.5,6.9-3.4,8.3-7.4
	c1.8-5.2-0.9-9.6-4.6-11.6c0.6-0.5,1-1.1,1.3-1.9c1,0.5,2,1.1,2.9,1.8c0.8,0.7,1.6,1.6,2.3,2.8c0.7,1.2,1.1,2.3,1.4,3.4
	c0.2,1.3,0.3,2.5,0.2,3.8c-0.3,2.7-1.6,5.2-3.7,7.4c-2,2-4.5,3.5-7.2,4.3c-0.3,0.1-0.5,0.3-0.7,0.5c-1.2-1.2-2.5-2.3-3.8-3.4
	C283,139.9,284.3,139.9,285.6,139.7z M296.4,145.4c-0.7,0.5-1.4,0.9-2.1,1.3c-0.6-1.1-1.2-2.2-1.8-3.2c-0.2-0.3-0.4-0.7-0.6-1
	c0.4-0.3,0.9-0.6,1.3-0.9l1.7,1.9c0.4,0.5,0.8,0.9,1.2,1.4C296.2,145.1,296.3,145.3,296.4,145.4z M303.6,137.6
	c-0.5,0.9-1,1.8-1.7,2.6c-1.2-1-2.4-1.9-3.6-2.8l-0.6-0.4c0.3-0.4,0.5-0.9,0.7-1.3c0.4,0.2,0.9,0.3,1.3,0.5
	C301.1,136.6,302.4,137.1,303.6,137.6z M299.9,127.7c1.6-0.2,3.6-0.5,5.7-0.7c0.1,0.9,0.1,1.8,0.1,2.6c-1.8-0.2-3.7-0.3-5.7-0.4
	C300,128.8,300,128.2,299.9,127.7z M296.6,120.2c1.7-1,3.3-1.9,5-2.9c0.6,0.8,1.1,1.5,1.5,2.2c-1.7,0.5-3.6,1.1-5.6,1.8
	C297.2,120.9,296.9,120.6,296.6,120.2z M308.2,132.4c0.7-4,0.1-8.4-1.7-12.1c-0.5-1.1-1-2-1.5-2.8c-0.6-0.9-1.2-1.7-1.9-2.6
	c-0.7-0.8-1.4-1.6-2.2-2.4c-0.4-0.4-0.8-0.7-1.3-1.1c1.8,0.5,3.3,0.2,4.4-0.8c0.6-0.6,1-1.3,1.1-2.1c6.3,6.3,9.5,14.8,8.7,22.9
	c-0.1,1.3-0.3,2.5-0.6,3.7c-0.3,1.1-0.7,2.3-1.3,3.5c-1,2.2-2.3,4.3-3.9,6.2c-3,3.5-7,6.5-11.9,8.8c-0.1,0.1-0.2,0.1-0.3,0.2
	c-1-1.2-2-2.4-3-3.6C301.2,146.5,306.7,140.2,308.2,132.4z M302.4,158.9c-0.7,0.3-1.3,0.1-2.1-0.5c-0.5-0.4-1.1-1.1-1.6-2l-0.1-0.2
	c-0.2-0.3-0.3-0.5-0.4-0.8c1.4-0.7,2.7-1.4,3.9-2.2l0.1,0.1c0.6,1.3,1,2.4,1.2,3.3C303.5,157.8,303.2,158.6,302.4,158.9z M317.3,172
	c-1.1,0.9-2.6,1.7-3.7,1c-0.5-0.3-1.1-1,0-3.2c0.7-1.3,1.8-2.7,2.5-3.5c0.5,0.3,1,0.6,1.5,0.9l0.6,0.4c0.7,0.4,1.3,0.8,2.1,1.2
	C319.6,169.7,318.5,171,317.3,172z M307.2,167.8c-0.3-0.2-0.4-0.4-0.4-0.5c-0.1-0.3,0-1,1-2.3c0.9-1.3,2.2-2.5,2.8-3.1
	c1.1,1.1,2.4,2.1,3.5,2.9C312.3,166.4,309.1,168.7,307.2,167.8z M304.3,151.6c1.4-1,2.7-2.1,3.9-3.3c0.1,0.1,0.2,0.3,0.4,0.4
	c0.9,1.1,1.5,2.2,1.8,3c0.4,1.1,0.2,1.9-0.5,2.3h0c-0.7,0.5-1.6,0.4-2.8-0.2C306.1,153.3,305.1,152.4,304.3,151.6
	C304.4,151.7,304.4,151.6,304.3,151.6z M310,146.4c1-1.2,2-2.5,2.8-3.8c0.6,0.4,1.5,0.9,2.3,1.6l0.3,0.2c2.6,2.4,1.7,3.5,1.4,3.9
	c-0.6,0.7-1.4,0.9-2.7,0.5c-1.2-0.4-2.5-1.2-3.3-1.8l-0.2-0.1C310.4,146.7,310.2,146.5,310,146.4z M287.4,118.8
	c-0.3,0.3-0.5,0.4-0.8,0.4c-0.4,0-1-0.3-2-1.5c-1-1.2-1.9-2.8-2.4-3.7c1.6-0.6,3.1-1.3,4.7-2.2C287.9,113.5,289.2,116.8,287.4,118.8
	z M278.6,122.3c-0.5,0.3-0.7,0.2-0.8,0.2c-0.3-0.1-0.9-0.6-1.4-2.2c-0.5-1.6-0.9-3.4-1.1-4.3c1.3-0.3,2.6-0.6,4-1h0
	c0.1,0,0.2-0.1,0.3-0.1C280.1,116.7,280.9,120.7,278.6,122.3z M252.3,119c-0.9,1.3-2.8,0.8-4.4,0.2l-0.3-0.1
	c-0.3-0.1-0.5-0.3-0.8-0.4c0.7-1.4,1.3-2.7,1.9-4.1l0.1,0.1c1.3,0.7,2.2,1.4,2.9,2C252.3,117.2,252.9,118.1,252.3,119z M261.4,123.4
	c-0.4,0.1-0.6-0.1-0.7-0.1c-0.3-0.2-0.6-0.8-0.6-2.4c0-1.4,0.3-3.1,0.4-4.1c1.5,0.2,3,0.3,4.5,0.3
	C264.7,119.3,263.5,123,261.4,123.4z M255,121c-0.2,0.2-0.6,0.4-0.9,0.3c-0.2,0-0.3-0.2-0.4-0.3c0.2-0.2,0.4-0.4,0.6-0.7
	c0.8-1.2,1-2.4,0.5-3.6c-0.2-0.5-0.6-1.1-1-1.6c1.3,0.5,2.8,0.8,4.3,1.1C257.4,117.9,256.5,119.8,255,121z M249.7,112
	C249.7,112,249.7,112,249.7,112c0.4-1.6,0.8-3.3,1.1-4.9c0.2,0,0.4,0.1,0.6,0.1l0.2,0c1.3,0.4,2.4,0.8,3.1,1.3
	c0.6,0.4,1.3,1.2,1,2.2c-0.3,0.8-1.1,1.3-2.4,1.5C252,112.3,250.7,112.2,249.7,112z M251.9,104.4c-0.3,0-0.5,0-0.7,0
	c0.1-1.6,0.1-3.2,0-4.7c1-0.1,2-0.1,2.8,0l0.4,0c2.3,0.3,3.5,1.1,3.4,2.3c-0.1,2.2-3.6,2.5-5.6,2.5L251.9,104.4z M260,103.4
	c0,0.7-0.1,1.4-0.1,2.1c-0.4-0.1-0.8-0.2-1.1-0.3C259.4,104.7,259.8,104.1,260,103.4z M254.7,95.7l-0.1,0.1
	c-1.2,0.6-2.6,1.1-3.8,1.3c-0.3-1.7-0.8-3.4-1.5-5.1c0.9-0.2,2.1-0.4,3.2-0.5c0.8-0.1,1.5-0.1,2.1,0c0.6,0.1,1.1,0.2,1.5,0.5
	c0.4,0.3,0.6,0.6,0.6,1.1C256.7,94.1,256,94.9,254.7,95.7z M253.8,88.9C253.8,88.9,253.8,88.9,253.8,88.9
	C253.9,88.9,253.9,88.9,253.8,88.9C253.9,88.9,253.8,88.9,253.8,88.9z M253.1,85.5c-0.2,0.2-0.4,0.4-0.4,0.6l-0.2,0.2
	c-1.1,1.4-2.7,2.3-4.4,3c-0.8-1.4-1.7-2.8-2.7-4c1-0.6,2.5-1.6,4-2.1l0,0c0.9-0.3,3.2-1,4,0.5C253.7,84.2,253.5,84.8,253.1,85.5z
	 M209.9,352.6c0.7-0.8,2.9-1,4.7-1c0.9,0,1.7,0,2.2,0.1c-0.3,1.7-0.4,3.4-0.4,5c-1.8-0.2-6.4-0.8-6.8-3.3
	C209.6,353.1,209.7,352.8,209.9,352.6z M207.1,340.9c-0.7,1.7-1.5,3.5-2.4,5.3c-0.7-0.2-1.6-0.5-2.5-0.9c1.3-1.6,2.5-3.3,3.5-4.7
	C206.2,340.6,206.6,340.8,207.1,340.9z M196.4,329.5l-4.2,1.2l-1,0.2c-0.1-1-0.2-2-0.2-3.1c0.2,0,0.4,0,0.6,0c0.7,0,1.3,0.1,2,0.1
	l2.6,0C196.3,328.5,196.4,329,196.4,329.5z M197.2,321.5l-2.4-0.5c-0.6-0.1-1.2-0.3-1.7-0.5c-0.2-0.1-0.4-0.1-0.6-0.2
	c0.3-0.8,0.6-1.5,0.9-2.3c1.3,0.6,2.6,1.2,3.8,1.7l0.6,0.3C197.5,320.5,197.3,321,197.2,321.5z M194.6,338.3
	c1.5-0.9,2.9-1.8,4.4-2.8c0.3,0.4,0.6,0.8,1,1.2c-1.4,1.3-2.7,2.7-4.2,3.9c-0.6-0.7-1.2-1.4-1.6-2.1L194.6,338.3z M204.5,318.6
	c-2.7,2.6-3.6,6.8-2.3,10.9c0.4,1.4,1,2.6,1.8,3.5c0.8,0.9,1.7,1.7,2.8,2.2c1.1,0.6,2.2,0.9,3.4,1c0.9,0.1,1.7,0,2.6-0.1
	c-0.2,0.7-0.2,1.5,0,2.3c-1.2,0.2-2.3,0.3-3.4,0.2c-1.3-0.1-2.5-0.4-3.6-0.9c-2.2-0.9-4.1-2.6-5.5-5c-1.7-2.9-1.7-6.1-1.3-8.2
	c0.4-2.8,1.6-5.4,3.3-7.8c0.2-0.2,0.3-0.5,0.3-0.7c1.6,0.2,3.3,0.4,4.9,0.5C206.5,317,205.4,317.7,204.5,318.6z M243.7,315.8
	L243.7,315.8c0-0.8,0.3-1.4,1.1-1.8c0.8-0.4,1.8-0.7,2.6-0.9l0.1,0c0.3-0.1,0.6-0.1,0.8-0.2c0.2,1.5,0.5,3,0.9,4.4l-0.2,0
	c-0.9,0.2-2.3,0.3-3.5,0C243.9,317.1,243.7,316.4,243.7,315.8z M213.4,347.6c-1.5-0.9-2.2-1.9-2.1-3.1c0.1-0.3,0.2-1.3,2.1-1.3
	c0.3,0,0.7,0,1.1,0.1c0.4,0.1,0.9,0.2,1.4,0.3c0.5,0.1,0.9,0.2,1.3,0.3c0.6,0.2,1.2,0.3,1.5,0.5c-0.6,1.5-1.1,3-1.4,4.6
	C216.2,348.8,214.7,348.4,213.4,347.6z M215.4,336.6c0-0.5,0.3-0.8,0.8-0.9c0.2,0,0.4-0.1,0.6-0.1c0.4,0,0.9,0.1,1.5,0.2
	c1.3,0.3,2.8,1,3.8,1.5c0.1,0,0.2,0.1,0.3,0.1c-1.1,1.7-1.9,3.1-2.5,4.5c-0.9-0.5-2.1-1.2-3-2C215.8,338.9,215.2,337.8,215.4,336.6z
	 M220.4,328.5c0.2-0.5,0.4-0.6,0.5-0.6c0.1,0,0.2,0,0.3,0c0.5,0,1.2,0.3,2.2,1c1.2,0.8,2.6,2.1,3.4,2.9c-1,1-1.8,2.1-2.7,3.1
	c-0.1,0.1-0.1,0.2-0.2,0.3C222.2,333.8,219.6,330.9,220.4,328.5z M226.8,322.1c0.2-0.2,0.5-0.3,0.9-0.3c0.5,0,1.2,0.3,2.2,1.3
	c1,1.1,2,2.6,2.5,3.5c-1.2,0.9-2.4,2-3.6,3.2c-0.8-1-1.6-2.5-2.1-3.8C226.1,324.7,225.7,322.9,226.8,322.1z M233.7,317.6
	c0.2-0.2,0.4-0.3,0.5-0.3c0,0,0,0,0,0c0.3,0,0.9,0.3,1.9,1.7c0.9,1.2,1.6,2.7,2.1,3.6c-1.3,0.7-2.6,1.5-3.9,2.4
	C233.4,322.9,232.2,319.2,233.7,317.6z M240.3,315.7c0.1-0.3,0.2-0.6,0.5-0.7c0.1,0,0.1,0,0.2,0c0.1,0,0.2,0,0.3,0.1
	c-0.1,0.3-0.1,0.6-0.1,0.9c0,1.5,0.7,3.2,3.5,3.9c-0.6,0.2-1.3,0.4-1.9,0.7c-0.7,0.3-1.5,0.6-2.2,0.9
	C240.1,319.7,239.8,317.5,240.3,315.7z M246.9,321.9c0.8-0.7,1.9-1.3,2.8-1.8l0.2-0.1c0,0,0,0,0.1,0c0.5,1.6,1.2,3.2,1.9,4.7
	c-0.2,0.1-0.4,0.2-0.6,0.2c-0.9,0.4-2.2,0.8-3.4,0.8h0c0,0,0,0,0,0c-1.5,0-1.9-0.7-2-1.2C245.6,323.6,245.9,322.7,246.9,321.9z
	 M252.4,327.5l0.1-0.1c0.2-0.2,0.4-0.3,0.6-0.4c0.8,1.4,1.8,2.6,2.8,3.8c-0.5,0.5-1.3,1.1-2.3,1.7l-0.3,0.2c-0.4,0.2-0.7,0.4-1,0.5
	c-0.5,0.2-0.9,0.3-1.3,0.3c-0.8,0.1-1.4-0.2-1.8-0.8c-0.5-0.8-0.4-1.7,0.4-2.7C250.3,329.1,251.4,328.2,252.4,327.5z M255.4,336.1
	l0.1-0.2c0.7-1.4,1.7-2.6,2.3-3.3c1.2,1.2,2.6,2.2,4.2,3.2c-0.6,0.7-1.4,1.6-2.3,2.3l0,0c-1.3,1.1-2.4,1.6-3.2,1.7
	c-0.5,0-0.9-0.1-1.1-0.5C254.8,338.6,254.8,337.5,255.4,336.1z M250.5,311.4c0-0.1-0.1-0.3-0.1-0.4c1.5-0.5,2.9-1.1,4.4-1.7
	c0.5,4.2,1.7,8.2,3.5,11.5c1,1.9,2.3,3.5,3.7,5c1.5,1.5,3.2,2.8,5,3.8c3.5,1.9,7.6,2.7,12.1,2.2c2.1-0.3,4.2-0.8,6.2-1.6
	c1.5-0.6,3-1.4,4.4-2.3c-0.9,1.3-1.4,2.8-0.6,4.4c0.3,0.8,0.9,1.3,1.6,1.7c-0.7,0.3-1.4,0.7-2,1c-1,0.4-2,0.8-3.2,1.1
	c-1.1,0.3-2.2,0.6-3.3,0.8c-1.1,0.2-2.3,0.3-3.3,0.4c-4.2,0.3-8.6-0.4-12.6-2.1c-4.6-2-8.3-5.3-11-9.7
	C252.8,321.4,251.2,316.7,250.5,311.4z M287.8,322.8c-0.2-0.4-0.7-1.4,1.9-2.9c0.7-0.4,1.5-0.7,2.5-1.1c0.6-0.2,1.1-0.4,1.5-0.5
	c0.4,1.6,0.9,3.1,1.5,4.5C293.4,323.7,289,325.2,287.8,322.8z M286.4,314c-0.2-0.3-0.2-0.6-0.2-0.8c0.2-0.5,0.8-1,2-1.4l0,0
	c1.3-0.5,3-0.9,4.3-1.1c0.1,1.7,0.3,3.5,0.6,5.2C291,316.1,287.6,316.1,286.4,314z M289.1,298.8c-1.2-0.8-2.5-1.9-2.1-3.2
	c0.1-0.3,0.3-1.1,1.9-1.1c0.3,0,0.7,0,1.2,0.1c1.4,0.3,3,0.8,4.1,1.3c-0.4,1.5-0.8,3.1-1,4.7C292.1,300.3,290.5,299.6,289.1,298.8z
	 M290,287.8c0.1-0.4,0.2-0.5,0.3-0.6c0.1-0.1,0.3-0.1,0.7-0.1c0.4,0,1,0.1,1.8,0.4c1.4,0.5,2.9,1.2,3.8,1.7
	c-0.6,1.3-1.2,2.7-1.7,4.2C292.9,292.2,289.7,289.9,290,287.8z M294.2,281.5c0.1-0.2,0.3-0.2,0.4-0.3c0.1,0.3,0.3,0.5,0.5,0.8
	c0.9,1.2,2.5,2.2,5.1,1.1c-0.4,0.5-0.7,1.1-1.1,1.7c-0.5,0.7-0.9,1.4-1.3,2.1c-1.4-1.2-3-2.7-3.6-4.5
	C294.2,282.1,294.1,281.7,294.2,281.5z M303.2,283.5c0.2-1.1,0.8-2.2,1.2-3.1l0.1-0.1c0,0,0,0,0-0.1c1.4,1,2.8,1.9,4.3,2.7
	c-0.1,0.2-0.2,0.3-0.3,0.5c-0.5,0.8-1.4,2-2.3,2.6l0,0c-1.3,0.9-1.9,0.6-2.4,0.3C303.1,285.7,302.9,284.8,303.2,283.5z M310.9,284.8
	l0.1-0.2c0.1-0.2,0.1-0.4,0.2-0.6c1.5,0.6,3,1.1,4.5,1.5c-0.2,0.7-0.4,1.7-0.8,2.7l-0.1,0.2c-0.2,0.4-0.4,0.8-0.6,1.1
	c-0.3,0.4-0.6,0.8-0.9,1c-0.6,0.6-1.2,0.7-1.9,0.4c-0.9-0.3-1.3-1.1-1.3-2.4C310.2,287.3,310.6,286,310.9,284.8z M344.7,264.5
	c-0.3,0-0.5-0.2-0.6-0.4c-0.4-0.6-0.3-1.8-0.1-2.8c0.3-1.6,0.9-3.2,1.3-4.2c1.5,0.8,3.1,1.4,4.7,1.9
	C348.7,261.9,346.9,264.9,344.7,264.5z M336.9,260.2c-1-0.5-1-1.6-0.2-3.4c0.3-0.7,0.8-1.5,1.4-2.4c0.4-0.5,0.7-1,0.9-1.3
	c1.3,1,2.6,1.9,3.9,2.8C341.9,257.6,339.3,261.5,336.9,260.2z M330.5,253.9c-0.3-0.1-0.6-0.3-0.6-0.6c-0.1-0.5,0.1-1.3,0.8-2.4
	c0.7-1.2,1.9-2.5,2.8-3.4c1.1,1.3,2.3,2.6,3.5,3.8C335.6,252.9,332.8,254.9,330.5,253.9z M324.4,246.6c-0.4-0.3-0.4-0.6-0.4-0.6
	c0-0.5,0.6-1.2,1.7-2.1c1.3-1,3-2,3.7-2.4c0.7,1.2,1.4,2.4,2.2,3.5c0.1,0.1,0.1,0.2,0.2,0.3C330.4,246.2,326.7,248.3,324.4,246.6z
	 M323.8,240c-1.4,0.1-3.1-0.1-3.6-1.4c-0.2-0.6-0.3-1.5,1.9-2.6c1.3-0.7,3-1.1,4.1-1.3c0.5,1.4,1.2,2.9,2,4.4
	C327,239.5,325.4,239.9,323.8,240z M321.5,232.3c-1.8-0.2-2.9-0.8-3.4-1.7c-0.2-0.3-0.1-0.5-0.1-0.7c0.1-0.3,0.6-0.8,2.2-1.3
	c1.3-0.4,3-0.7,4.1-0.9c0.2,1.5,0.6,2.9,1.1,4.4C324.5,232.3,323,232.5,321.5,232.3z M316.9,212.6c-0.1-1.6-0.1-3.1-0.3-4.7
	c4.1,0.9,8.3,0.9,12,0.2c4.3-0.9,8.1-2.8,11-5.6c1.5-1.4,2.7-3.1,3.7-4.9c0.9-1.6,1.5-3.4,2-5.9c0.4-1.9,0.5-3.9,0.4-6.4
	c-0.1-1-0.2-2.1-0.4-3.2c-0.1-0.5-0.2-1.1-0.4-1.6c1.4,1.8,2.9,2.1,4,1.9c0.8-0.1,1.5-0.4,2.1-1c0.2,1.7,0.4,3.5,0.4,5.7
	c0,2-0.3,4.1-0.9,6.6c-0.2,1-0.5,2-1,3.1c-0.4,1-0.8,2-1.3,3c-0.6,1.1-1.1,2-1.6,2.7c-0.6,0.9-1.3,1.7-2,2.5c-1.8,2-3.7,3.5-5.8,4.7
	c-2.1,1.2-4.4,2.1-6.8,2.7c-4.5,1.1-9.5,1.2-14.8,0.1C317.2,212.6,317.1,212.6,316.9,212.6z M344.2,209.3c1.2,2,2.5,5,2.1,6.6l0,0.1
	c-0.2,0.4-0.4,0.7-0.9,0.8c-0.8,0.2-1.8-0.1-2.7-0.9l-0.3-0.3c-1.2-1.1-2.1-2.5-2.6-3.3C341.4,211.4,342.9,210.4,344.2,209.3z
	 M352.5,206.8c0.6,0.8,1,1.6,1.2,2.2c0.1,0.7,0,1.3-0.4,1.7c-0.3,0.3-0.9,0.4-1.8,0.2c-0.2-0.1-0.5-0.2-0.7-0.2l-0.3-0.1
	c-1.6-0.6-2.9-1.9-4.3-3.2c1.1-1.1,2.1-2.4,3.1-3.8C350.2,204.3,351.5,205.5,352.5,206.8z M354.2,187.1c2.1,0.1,4.8,0.7,5.9,2.1
	c0.5,0.5,0.6,1.1,0.6,1.9c-0.1,0.6-0.3,1.1-0.8,1.5c-1.1,0.8-3.4,1-6.3,0.5C354,190.7,354.2,188.8,354.2,187.1z M359.1,181.6
	c-1.1,1.7-3.4,2.2-5,2.5c-0.1-1.1-0.2-2.2-0.3-3.3c-0.1-0.9-0.3-1.8-0.6-2.9c1.7,2.1,3.5,2.8,5.2,1.9c0.3-0.2,0.6-0.4,0.9-0.6
	C359.9,180,359.5,181,359.1,181.6z M348.7,179.6c-0.3,0.2-0.6,0.2-0.8,0.1c-1.4-0.6-2.5-4.3-3-6.1c0-0.1,0-0.1-0.1-0.2
	c1.7-0.3,3.3-0.7,4.9-1.2C350.4,174.7,350.6,178.6,348.7,179.6z M342.1,177.8c-0.4,1.8-1.1,2.7-2.3,2.9c-0.4,0.1-0.7,0-1-0.2
	c-0.5-0.4-0.9-1.2-1.1-2.5c-0.3-1.6-0.3-3.4-0.3-4.4c1.6,0.1,3.2,0.1,4.7,0C342.3,174.8,342.4,176.4,342.1,177.8z M308.9,109
	c-0.7-0.8-1.4-1.7-2.2-2.4c-0.7-0.7-1.5-1.4-2.2-2c3.2,0.8,4.7-0.3,5.4-1.5c0.2-0.3,0.3-0.6,0.4-1c1,0.3,1.3,1.3,1.3,2
	C311.6,106,310,107.8,308.9,109z M295.1,105.8c1.2-1.2,2.3-2.5,3.3-3.8c2.1,1.8,4.5,4.7,3.6,6.6c-0.2,0.3-0.4,0.5-0.7,0.5
	c-1.5,0.3-4.7-2.2-6-3.2C295.2,105.8,295.1,105.8,295.1,105.8z M295.4,114.7c-0.3,0.3-1.1,1.1-3.3-1c-1.2-1.1-2.2-2.6-2.8-3.4
	c1.4-0.9,2.6-1.8,3.8-2.8c0.8,0.9,1.8,2.1,2.4,3.4C296.2,112.7,296.2,113.9,295.4,114.7z M272.1,120.8c-0.4,1.3-1.1,2.9-2.4,3
	c-0.6,0-1.5-0.2-1.8-2.7c-0.2-1.5-0.1-3.2,0-4.2c0.7,0,1.5-0.1,2.5-0.2c0.8-0.1,1.6-0.2,2.4-0.3
	C272.6,117.6,272.5,119.3,272.1,120.8z M238.1,74.2c-0.3,1.4-0.9,2.8-1.5,3.8c-1.7-0.9-3.5-1.7-5.4-2.4c0.8-2,2.2-4.3,3.8-5
	c0.6-0.3,1.3-0.3,1.9,0C238.1,71.2,238.5,72.4,238.1,74.2z M185.5,99c0.4,0.6,0.7,1.1,1.1,1.7l-0.2,0.1c-0.3,0.1-0.6,0.2-0.9,0.3
	C185.6,100.4,185.6,99.7,185.5,99z M169.3,89.4l0,0.3c-0.1,1.8-0.9,3.6-1.7,5.1c-1.5-0.8-3.1-1.3-4.6-1.7c0.2-0.5,0.4-1.1,0.6-1.6
	c0.4-0.9,0.9-1.7,1.4-2.5c0.9-1.2,2.2-2.6,3.5-2c0.4,0.2,0.7,0.7,0.7,1.6C169.2,88.9,169.2,89.1,169.3,89.4z M134.5,96.9
	c-1.1,1.4-2.5,2.8-3.2,3.4c-1-1.1-2.1-2.2-3.3-3.1c3.2-3,5.7-4.2,7.4-3.4c0.3,0.2,0.4,0.3,0.5,0.5C135.9,94.8,135.4,95.7,134.5,96.9
	z M106.9,140.7C106.9,140.7,106.9,140.7,106.9,140.7C106.9,140.7,106.9,140.7,106.9,140.7C106.9,140.7,106.9,140.7,106.9,140.7z
	 M84.2,151.2c0.4-0.5,1-0.7,1.6-0.7c0,0,0,0,0,0c1.4,0,3.3,1.2,5.4,3.3c-1.3,1.2-2.6,2.6-4,4.4c-0.9-0.8-2-1.8-2.8-3
	C83.4,153.4,83.3,152.1,84.2,151.2L84.2,151.2z M82.6,166.2c0-0.7-0.1-1.4-0.3-2c-0.4-1.5-1.4-2.4-2.7-2.6l0,0
	c-0.2,0-0.4-0.1-0.6-0.1c-0.1,0-0.3,0-0.4,0c-0.1-1.1,0.8-1.6,1.4-1.9c1.6-0.7,3.6,0,5.5,0.9C84.5,162.3,83.5,164.1,82.6,166.2z
	 M78.9,164.6c0.4-0.1,0.5,0,0.6,0.1c0.6,0.5,0.5,2.3,0.5,2.9c-0.1,1.8-0.4,3.7-0.6,4.6c-1.5-0.3-3-0.5-4.5-0.6
	c0.2-1.1,0.6-2.7,1.2-4.1c0.4-0.8,0.8-1.5,1.2-2C77.8,165,78.3,164.7,78.9,164.6z M106.6,216.1C106.7,216.1,106.7,216.1,106.6,216.1
	c-1.7,0.1-3.4,0.2-5,0.5c0-0.2,0-0.4-0.1-0.6c-0.1-2.4,0.3-4.1,1-4.8c0.3-0.3,0.6-0.4,1-0.4c0,0,0.1,0,0.1,0c2,0.1,2.7,3,2.9,4.7h0
	L106.6,216.1z M91.3,205.8c1.9-0.9,3.6-1.7,5.3-2.4c0.2,0.8,0.3,1.5,0.4,2.3c-1.9,0.5-3.8,1-5.6,1.5
	C91.5,206.7,91.4,206.3,91.3,205.8z M85.7,216.1c0.2-0.4,0.4-0.7,0.9-0.8c0.8-0.2,1.8,0.1,2.7,0.9l0.3,0.3c1.2,1.1,2.1,2.5,2.6,3.3
	c-1.6,0.9-3.1,1.9-4.4,3C86.7,220.8,85.3,217.8,85.7,216.1L85.7,216.1z M77.8,244.9c-2.1-0.1-4.8-0.7-5.9-2.1
	c-0.5-0.5-0.6-1.1-0.6-1.9c0.1-0.6,0.3-1.1,0.8-1.5c1.1-0.8,3.4-1,6.3-0.5C78,241.3,77.8,243.2,77.8,244.9z M72.9,250.4
	c1.1-1.7,3.4-2.2,5-2.5c0.1,1.1,0.2,2.2,0.3,3.3c0.1,0.9,0.3,1.8,0.6,2.9c-1.2-1.5-2.5-2.3-3.8-2.3c-0.5,0-1,0.1-1.5,0.4
	c-0.3,0.2-0.6,0.4-0.9,0.6C72.1,252,72.5,251,72.9,250.4z M74.9,255c0.2-0.2,0.4-0.3,0.5-0.3c0,0,0.1,0,0.1,0
	c1.4,0.2,3.3,4.1,4.1,5.7c0.1,0.2,0.1,0.3,0.2,0.4c-1.4,0.6-2.7,1.3-4,2.2c-0.6-1.1-1.2-2.6-1.5-4C73.9,257.2,74.1,255.8,74.9,255z
	 M83.3,252.4c0.2-0.1,0.3-0.1,0.5-0.1c0.1,0,0.2,0,0.4,0.1c1.4,0.6,2.5,4.3,3,6.1c0,0.1,0,0.1,0.1,0.2c-1.7,0.3-3.3,0.7-4.9,1.2
	C81.6,257.3,81.4,253.4,83.3,252.4z M89.9,254.2c0.4-1.8,1.1-2.7,2.3-2.9c0.1,0,0.2,0,0.3,0c0.3,0,0.5,0.1,0.7,0.2
	c0.5,0.4,0.9,1.2,1.1,2.5c0.3,1.6,0.3,3.4,0.3,4.4c-1.6-0.1-3.2-0.1-4.7,0C89.7,257.2,89.6,255.6,89.9,254.2z M123.1,323
	c0.7,0.8,1.4,1.7,2.2,2.4c0.7,0.7,1.5,1.4,2.2,2c-3.2-0.8-4.7,0.3-5.4,1.5c-0.2,0.3-0.3,0.6-0.4,1c-1-0.3-1.3-1.3-1.3-2
	C120.4,326,122,324.2,123.1,323z M130.1,323.4c0.2-0.3,0.4-0.5,0.7-0.5c0.1,0,0.2,0,0.3,0c1.6,0,4.5,2.3,5.7,3.3
	c0,0,0.1,0.1,0.1,0.1c-1.2,1.2-2.3,2.5-3.3,3.8C131.5,328.3,129.1,325.4,130.1,323.4z M136.6,317.3c0.2-0.2,0.4-0.4,0.9-0.4
	c0.5,0,1.3,0.3,2.4,1.4c1.2,1.1,2.2,2.6,2.8,3.4c-1.4,0.9-2.6,1.8-3.8,2.8c-0.8-0.9-1.8-2.1-2.4-3.4
	C135.8,319.3,135.8,318.1,136.6,317.3z M159.9,311.2c0.4-1.3,1.1-2.9,2.4-3c0,0,0.1,0,0.1,0c0.6,0,1.4,0.3,1.7,2.7
	c0.2,1.5,0.1,3.2,0,4.2c-0.7,0-1.5,0.1-2.5,0.2c-0.8,0.1-1.6,0.2-2.4,0.3C159.4,314.4,159.5,312.7,159.9,311.2z M193.9,357.8
	c0.3-1.4,1-2.9,1.5-3.8c1.7,0.9,3.5,1.7,5.4,2.4c-0.8,2-2.2,4.3-3.8,5c-0.6,0.3-1.3,0.3-1.9,0C193.9,360.8,193.5,359.6,193.9,357.8z
	 M262.7,342.6l0-0.3c0.1-1.8,0.9-3.6,1.7-5.1c1.5,0.8,3.1,1.3,4.6,1.7c-0.2,0.5-0.4,1.1-0.6,1.6c-0.4,0.9-0.9,1.7-1.4,2.5
	c-0.9,1.2-2.2,2.6-3.5,2c-0.4-0.2-0.7-0.7-0.7-1.6C262.8,343.1,262.8,342.9,262.7,342.6z M297.5,335.1c1.1-1.4,2.5-2.8,3.2-3.4
	c1,1.1,2.1,2.2,3.3,3.1c-3.2,3-5.7,4.2-7.4,3.4c-0.3-0.2-0.4-0.3-0.5-0.5C296.1,337.2,296.6,336.3,297.5,335.1z M347.8,280.9
	c-0.4,0.5-1,0.7-1.6,0.7c0,0,0,0,0,0c-1.4,0-3.3-1.2-5.4-3.3c1.3-1.2,2.6-2.6,4-4.4c0.9,0.8,2,1.8,2.8,3
	C348.6,278.6,348.7,279.9,347.8,280.9L347.8,280.9z M349.4,265.8c0,0.7,0.1,1.4,0.3,2c0.4,1.5,1.4,2.4,2.7,2.6l0,0
	c0.4,0.1,0.7,0.1,1.1,0c0.1,1.1-0.8,1.6-1.4,1.9c-1.6,0.7-3.6,0-5.5-0.9C347.5,269.7,348.5,267.9,349.4,265.8z M353.1,267.4
	c-0.4,0.1-0.5,0-0.6-0.1c-0.6-0.5-0.5-2.3-0.5-2.9c0.1-1.8,0.4-3.7,0.6-4.6c1.5,0.3,3,0.5,4.5,0.6c-0.2,1.1-0.6,2.7-1.2,4.1
	c-0.4,0.8-0.8,1.5-1.2,2C354.2,267,353.7,267.3,353.1,267.4z M325.4,215.9C325.3,215.9,325.3,215.9,325.4,215.9
	c1.7-0.1,3.4-0.2,5-0.5c0,0.2,0,0.4,0.1,0.6c0.1,2.4-0.3,4.1-1,4.8c-0.3,0.3-0.6,0.4-1,0.4c-2-0.1-2.7-3-2.9-4.7h0L325.4,215.9z
	 M340.7,226.2c-1.9,0.9-3.6,1.7-5.3,2.4c-0.2-0.8-0.3-1.5-0.4-2.3c2-0.5,3.8-1,5.6-1.5C340.5,225.3,340.6,225.7,340.7,226.2z
	 M352.9,195.8c2.4,0.7,6.3,2.7,5.8,5.9c-0.1,0.5-0.3,0.9-0.7,1.2c-0.6,0.4-1.5,0.4-2.8,0.1c-1.6-0.4-3.4-1.2-4.4-1.8
	C351.6,199.5,352.3,197.7,352.9,195.8z M318.3,154.4c1.2-1.4,2.4-2.9,3.6-4.5c0.3,0.3,0.6,0.7,0.9,1c-0.9,1.7-1.9,3.4-2.9,5.1
	C319.4,155.5,318.8,155,318.3,154.4z M326.4,160.2c0.8-1.8,1.6-3.6,2.3-5.4c0.5,0.2,1,0.4,1.5,0.6c-0.5,2.2-0.9,4.1-1.4,5.8
	C328,160.9,327.2,160.6,326.4,160.2z M314.8,119.2c0.9-0.3,2.6-0.8,4.2-0.7c2,0.1,3.3,0.8,3.9,2.1c0.2,0.5,0.3,0.9,0.1,1.3
	c-0.2,0.6-1,1.2-2.2,1.7c-1.5,0.6-3.4,1-4.6,1.2C316,123,315.5,121.1,314.8,119.2z M307.3,101.5c0,0.4-0.2,0.5-0.3,0.6
	c-1.3,0.7-5.2-1.5-6.7-2.3c-0.1-0.1-0.3-0.1-0.4-0.2c0.8-1.3,1.4-2.7,1.9-4.1c1.1,0.6,2.5,1.4,3.6,2.4
	C306.7,99.2,307.4,100.4,307.3,101.5z M195.2,95.6c-0.6,0.5-1.2,1-1.9,1.5c-0.6-0.7-1.3-1.5-1.9-2.2l-1.9-2.1c0.4-0.3,0.9-0.7,1.3-1
	C192.3,93.1,193.8,94.3,195.2,95.6z M203.5,78.6l-1.4-0.1l-5.2-0.1c0-0.5-0.1-0.9-0.1-1.4c0.6-0.1,1.2-0.2,1.8-0.3
	c1.6-0.3,3.2-0.5,4.8-0.7C203.5,77,203.5,77.8,203.5,78.6z M201.5,86.7L201.5,86.7c-0.3,1-0.8,2-1.3,2.9l-0.5-0.3
	c-1.5-1-3.1-2-4.6-2.9c0.2-0.4,0.4-0.9,0.6-1.4C197.7,85.6,199.6,86.1,201.5,86.7z M160.2,92.4c-1.6-0.3-3.1-0.4-4.7-0.4
	c-0.4,0-0.7,0-1.1,0c0-1,0-2.7,0.6-4.3c0.5-1.3,1.4-2.8,3.2-3.1c0.5-0.1,1,0,1.3,0.3c0.5,0.4,0.8,1.3,1,2.6
	C160.7,89.3,160.4,91.2,160.2,92.4z M115.5,112.4c0.3-0.4,0.5-0.7,0.8-1.1c1.1-1.5,2.2-3,3.4-4.4c0.7,0.5,1.4,1,2,1.5
	c-0.2,0.2-0.4,0.3-0.6,0.5c-0.6,0.6-1.3,1.2-1.9,1.8l-2.5,2.5C116.4,112.9,116,112.6,115.5,112.4z M86.5,188.1
	c-0.5,0.7-1.1,1.6-1.7,2.5l-1.7,2.6c-0.4-0.3-0.9-0.5-1.3-0.7c0.6-2,1.3-4.1,2.1-6.1C84.7,187,85.6,187.5,86.5,188.1z M76.5,184.4
	c0,0.2-0.1,0.5-0.1,0.7c-0.2,0.9-0.3,1.7-0.5,2.6l-0.5,3.5c-0.5,0-1.1,0-1.6,0.1l0-0.7c0-2,0-4.1,0.2-6.2
	C74.8,184.3,75.7,184.3,76.5,184.4z M85.7,224.6c-1.1,1.2-2.1,2.4-3.1,3.8c-0.9-0.7-2.2-1.9-3.2-3.2c-0.6-0.8-1-1.6-1.2-2.2
	c-0.1-0.7,0-1.3,0.4-1.7c0.3-0.3,0.9-0.4,1.8-0.2c0.2,0.1,0.5,0.2,0.7,0.2l0.3,0.1C83.1,222,84.4,223.2,85.7,224.6z M79.1,236.2
	c-2.4-0.7-6.3-2.7-5.8-5.9c0.1-0.5,0.3-0.9,0.7-1.2c0.6-0.4,1.5-0.4,2.8-0.1c1.6,0.4,3.4,1.2,4.4,1.8
	C80.4,232.5,79.7,234.3,79.1,236.2z M113.7,277.6c-1.2,1.4-2.4,2.9-3.6,4.5c-0.3-0.3-0.6-0.7-0.9-1c0.9-1.7,1.9-3.4,2.9-5.1
	C112.6,276.5,113.2,277,113.7,277.6z M105.6,271.8c-0.8,1.8-1.6,3.6-2.3,5.4c-0.5-0.2-1-0.4-1.5-0.6c0.5-2.2,0.9-4.1,1.4-5.8
	C104,271.1,104.8,271.4,105.6,271.8z M117.2,312.8c-0.9,0.3-2.5,0.8-4.2,0.7c-2-0.1-3.3-0.8-3.9-2.1c-0.2-0.5-0.3-0.9-0.1-1.3
	c0.2-0.6,1-1.2,2.2-1.7c1.6-0.6,3.5-1,4.6-1.2C116,309,116.5,310.9,117.2,312.8z M124.7,330.5c0-0.4,0.2-0.5,0.3-0.6
	c0.2-0.1,0.4-0.1,0.6-0.1c1.6,0,4.8,1.7,6.1,2.4c0.1,0.1,0.3,0.1,0.4,0.2c-0.8,1.3-1.4,2.7-1.9,4.1c-1.1-0.6-2.5-1.4-3.6-2.4
	C125.3,332.8,124.6,331.6,124.7,330.5z M130.5,337.1L130.5,337.1L130.5,337.1L130.5,337.1z M246.1,337.2c-0.4,0.2-0.8,0.4-1.2,0.6
	c-1.4-1.4-2.7-2.9-4-4.3c0.7-0.4,1.4-0.8,2.1-1.1C244,333.9,245,335.5,246.1,337.2z M239.3,342.1c-0.4,0.4-0.7,0.8-1,1.2l-2.6-1.5
	l-2.5-1.6c0.5-0.7,1-1.3,1.6-2C236.3,339.5,237.8,340.8,239.3,342.1z M235.2,350.9l-3.3,0c-1.2,0-2.2,0-3.1-0.1c0.2-1,0.4-2,0.7-3
	c2,0.6,3.9,1.1,6,1.7C235.4,350,235.3,350.4,235.2,350.9z M233.8,357.7c0.6-0.1,1.3-0.2,2-0.3c0.2,0.5,0.4,1,0.6,1.5l-3.7,1.1
	c-1,0.3-1.9,0.6-2.9,0.8c-0.3-0.8-0.5-1.6-0.7-2.4C230.6,358.3,232.2,358,233.8,357.7z M271.8,339.6c2,0.3,3.9,0.5,5.8,0.4
	c0,1,0,2.7-0.6,4.3c-0.5,1.2-1.4,2.8-3.2,3.1c-0.5,0.1-1,0-1.3-0.3c-0.5-0.4-0.8-1.3-1-2.6C271.3,342.7,271.6,340.8,271.8,339.6z
	 M316.5,319.6c-0.3,0.4-0.6,0.7-0.8,1.1c-1.1,1.5-2.2,3-3.4,4.4c-0.7-0.5-1.4-1-2-1.5c0.2-0.2,0.4-0.3,0.6-0.5
	c0.6-0.6,1.3-1.2,1.9-1.8l2.5-2.5C315.6,319.1,316,319.4,316.5,319.6z M345.5,243.9c0.5-0.7,1.1-1.6,1.7-2.5l1.7-2.6
	c0.4,0.3,0.9,0.5,1.3,0.7c-0.6,2-1.3,4.1-2.1,6.1C347.3,245,346.4,244.5,345.5,243.9z M355.5,247.6c0-0.2,0.1-0.5,0.1-0.7
	c0.2-0.9,0.3-1.7,0.5-2.6l0.5-3.5c0.5,0,1.1,0,1.6-0.1l0,0.7c0,2,0,4.1-0.2,6.2C357.2,247.7,356.3,247.7,355.5,247.6z M336.9,156.2
	c0.5,0,1-0.1,1.5-0.2c0.5,1.4,0.9,2.9,1.3,4.3c0.2,0.6,0.4,1.2,0.5,1.8c-1,0.2-2.1,0.3-3.1,0.3l0-0.8
	C337.1,159.8,337.1,158,336.9,156.2z M344.4,153.4c0.4-0.3,0.8-0.7,1.2-1c0.6,0.8,1.2,1.7,1.9,2.8l2,2.9c-0.7,0.5-1.4,1-2.1,1.4
	c-0.3-0.6-0.6-1.1-0.8-1.7C345.9,156.4,345.2,154.9,344.4,153.4z M266.9,100.8c0.5,0,1.1,0,1.6-0.1l0.7,2.9c0.2,0.9,0.4,1.9,0.6,2.8
	c-0.8,0.1-1.5,0.1-2.4,0.1C267.4,104.6,267.2,102.7,266.9,100.8z M275.3,98.8c0.5-0.2,0.9-0.5,1.3-0.7l2,2.4l1.8,2.4
	c-0.9,0.5-1.8,1-2.8,1.4c-0.6-1.6-1.3-3.2-2-4.8L275.3,98.8z M283.8,95.3c-0.8-0.6-1.6-1.2-2.5-1.8c0.3-0.4,0.5-0.8,0.7-1.2
	c1.4,0.7,2.7,1.4,4.1,2.1c0.6,0.3,1.2,0.7,1.8,1c-0.4,0.7-0.9,1.4-1.4,2.1L283.8,95.3z M95.1,275.8c-0.5,0-1,0.1-1.5,0.2
	c-0.5-1.4-0.9-2.9-1.3-4.3c-0.2-0.6-0.4-1.2-0.5-1.8c1-0.2,2.1-0.3,3.1-0.3l0,0.8C94.9,272.2,94.9,274,95.1,275.8z M87.6,278.6
	c-0.4,0.3-0.8,0.7-1.2,1c-0.6-0.8-1.2-1.7-1.9-2.8l-2-2.9c0.7-0.5,1.4-1,2.1-1.4c0.3,0.6,0.6,1.1,0.8,1.7
	C86.1,275.6,86.8,277.1,87.6,278.6z M148.9,342.1c-0.2,0.5-0.3,1-0.4,1.5c-1.6-0.5-3.2-1.1-4.7-1.7c-0.6-0.2-1.2-0.4-1.8-0.7
	c0.2-0.8,0.5-1.6,0.8-2.4l3.3,1.8C147,341.1,147.9,341.6,148.9,342.1z M169.5,326c-0.1,1.9-0.2,3.8-0.3,5.8
	c-0.4-0.1-0.9-0.2-1.3-0.2c-0.2-1.8-0.5-3.7-0.7-5.9C168,325.7,168.8,325.8,169.5,326z M160.7,331.8c-0.5,0.1-1,0.3-1.5,0.4
	c-0.8-1.8-1.5-3.6-2.3-5.5c0.8-0.3,1.7-0.5,2.5-0.7C159.8,327.9,160.2,329.9,160.7,331.8z M153.3,335.4c-0.4,0.3-0.7,0.7-1.1,1
	l-1.1-0.8l-4-3.1c0.7-0.7,1.5-1.4,2.4-2.1C150.7,332.2,152,333.8,153.3,335.4z M355.9,165.5c-3.8,2.9-8.3,4.7-13.3,5.3
	c-4.6,0.5-9.6,0-14.3-1.4c-2.5-0.8-4.3-1.5-5.9-2.3c-1-0.5-1.9-1-2.7-1.5c-0.9-0.5-1.7-1-2.6-1.6c-0.8-0.5-1.5-1.1-2.3-1.8
	c-0.8-0.6-1.5-1.2-2.2-1.9c-0.7-0.6-1.3-1.4-2-2.1c-0.4-0.4-0.8-0.9-1.2-1.3c0.7-0.1,1.4-0.3,2-0.7c1.4-0.9,2-2.3,1.7-4
	c0.4,0.6,0.9,1.2,1.4,1.9c0.4,0.5,0.9,1,1.3,1.5c0.5,0.5,0.9,1,1.4,1.4c1,0.9,2,1.8,3.1,2.6c1.1,0.8,2.2,1.5,3.4,2.2
	c0.2,0.2,0.5,0.4,0.8,0.4c1.9,0.9,3.8,1.6,5.6,2.1c2.1,0.6,4.2,0.9,6.4,0.9c2.2,0,4.3-0.2,6.3-0.7c4.1-1,7.7-3,10.6-5.9
	c0.9,2.2,1.8,4.5,2.6,6.8C356,165.4,355.9,165.4,355.9,165.5z M346.6,145.8c-2.2,5.4-7.3,8.3-13.3,7.6c-2.9-0.4-5.6-1.5-7.6-3.3
	c-1.3-1.1-2.2-2-2.8-3c-0.7-0.9-1.2-2-1.8-3.3c0.8-0.2,1.4-0.6,1.9-1.2c0.2,0.3,0.3,0.6,0.5,0.9c0.3,0.5,0.7,1.1,1,1.5
	c0.8,1,1.7,1.8,2.7,2.5c2.2,1.6,4.7,2.4,7.3,2.4c4.5,0.1,8.2-2.8,9-7.1c0.2-1.2,0.2-2.4-0.1-3.7c1.2,2,2.4,4.1,3.5,6.1
	C346.9,145.4,346.7,145.5,346.6,145.8z M299.5,92.9c-2.7,8.8-9.8,15.7-20.1,19.3c-2.3,0.8-4.3,1.3-6.1,1.6c-2.4,0.4-4.3,0.6-6,0.6
	c-0.9,0-1.7,0-2.6,0l-0.3,0c-1,0-1.9-0.1-2.9-0.2c-0.6-0.1-1.3-0.2-1.9-0.3c-0.3-0.1-0.6-0.1-0.9-0.2c-0.6-0.1-1.1-0.2-1.7-0.4
	c0.5-0.5,1-1.1,1.2-1.8c0.5-1.2,0.4-2.4-0.3-3.5c-0.2-0.3-0.4-0.5-0.6-0.8c4.5,1.6,9.2,2.1,14.1,1.5c0.3,0.1,0.6,0,0.9-0.1
	c0.9-0.2,1.9-0.4,2.9-0.6c1-0.2,2-0.6,2.9-0.9c4.1-1.5,7.7-4,10.5-7.3c2.7-3.2,4.5-7,5.1-11c2.1,1.3,4.1,2.6,6.1,3.9
	C299.5,92.8,299.5,92.9,299.5,92.9z M290.6,87.7c0,0.2,0,0.3-0.1,0.5l-0.7-0.3c-2-0.7-4-1.5-6.1-2.2c0-0.8-0.1-1.7-0.2-2.5
	c2.4,1.3,4.9,2.6,7.2,3.9C290.7,87.4,290.6,87.5,290.6,87.7z M280.5,82.4c1.3,5.7-1.1,11-6.3,13.9c-2.5,1.4-5.4,2-8.1,1.8
	c-1.5-0.1-2.9-0.4-4-0.8c-1.1-0.4-2.2-0.9-3.4-1.6c0.5-0.6,0.8-1.3,0.9-2c4.4,2.3,9.5,2,13.6-0.8c3.8-2.6,5-7.1,3.1-11.1
	c-0.5-1.1-1.3-2.1-2.2-3c2.2,0.9,4.3,1.9,6.5,2.9C280.4,81.9,280.4,82.2,280.5,82.4z M211.2,67.4c1.6,4.5,1.9,9.3,0.9,14.3
	c-0.9,4.4-2.9,8.9-5.8,13.2c-2.5,3.5-5.4,6.6-8.5,8.9c-1.4,1.1-2.9,2.1-4.9,3.2c-1.4,0.8-2.8,1.4-4.2,2c0.2-0.7,0.1-1.5,0-2.2
	c-0.4-1.6-1.5-2.6-3.3-2.8c5-1.6,9-3.9,12.4-7.2c0.3-0.1,0.5-0.4,0.6-0.6c1.4-1.4,2.7-2.9,3.8-4.6c1.2-1.9,2.2-3.8,2.9-5.8
	c0.7-2,1.2-4.1,1.3-6.2c0.3-4.2-0.5-8.3-2.4-11.9c2.4-0.2,4.8-0.3,7.3-0.4C211.2,67.2,211.2,67.3,211.2,67.4z M201,68.3
	c0.1,0.1,0.1,0.3,0.2,0.4c-1.7,0.5-3.4,1-5,1.5c-0.6,0.2-1.3,0.4-1.9,0.6c-0.5-0.7-1-1.3-1.7-1.9c2.7-0.4,5.4-0.8,8.2-1.1
	C200.8,68,200.9,68.2,201,68.3z M189.7,70.1c4.4,3.7,5.5,9.5,3,15c-1.1,2.4-2.9,4.5-5.5,6.2c-1,0.7-2.2,1.2-3.7,1.7
	c-1.2,0.4-2.4,0.6-3.7,0.7c0-0.8-0.2-1.5-0.5-2.2c4.9-0.8,8.8-4,10.5-8.7c1.5-4.2-0.1-8.7-4-10.8c-1.1-0.6-2.4-0.9-3.7-1.1
	c2.4-0.6,4.8-1.1,7.2-1.5C189.3,69.7,189.4,69.9,189.7,70.1z M72.9,174.6c0.1,0,0.2,0,0.2,0c4.8-0.1,9.4,1.1,13.9,3.6
	c2,1.1,4,2.6,5.8,4.2c1.7,1.5,3.3,3.3,5,5.4c1.2,1.6,2.3,3.3,3.4,5.3c1,1.8,1.8,3.7,2.4,5.5c0.7,2,1.2,3.9,1.5,5.7
	c0.3,1.7,0.5,3.2,0.6,4.6c-0.6-0.4-1.3-0.6-2.1-0.6c-1.3-0.1-2.4,0.4-3.2,1.4c-0.2,0.3-0.4,0.5-0.5,0.8c0-0.1,0-0.2,0-0.3v-0.5
	c0-0.5,0-1,0-1.5c-0.1-1.3-0.2-2.7-0.5-4c-0.2-1.1-0.5-2.5-1-3.9c-0.4-1.2-0.9-2.3-1.4-3.4l-0.1-0.3c0-0.3-0.2-0.6-0.4-0.8
	c-0.9-1.7-2-3.4-3.3-5c-5.5-6.9-14.1-10.4-22.2-9.1C71.6,179.3,72.2,176.9,72.9,174.6z M68.4,196.1c0.2,0,0.4,0,0.7-0.2
	c2.4-1.5,5.2-2.1,7.9-1.8c2.6,0.3,5.1,1.5,7.3,3.5c4,3.6,5.6,9.3,4.3,14.9c-0.8-0.3-1.5-0.3-2.2-0.2c0.2-0.9,0.2-1.9,0.1-2.8
	c-0.1-1.3-0.3-2.5-0.6-3.6c-0.4-1.2-1-2.3-1.7-3.4c-0.9-1.2-1.7-2.1-2.8-2.9c-3.6-2.8-8.2-2.6-11.5,0.4c-0.9,0.9-1.6,2-2.2,3.2
	C67.8,201,68.1,198.6,68.4,196.1z M76.1,266.5c3.8-2.9,8.3-4.7,13.3-5.3c4.6-0.5,9.6,0,14.3,1.4c2.5,0.8,4.3,1.5,5.9,2.3
	c1,0.5,1.9,1,2.7,1.5c0.9,0.5,1.7,1,2.6,1.6c0.8,0.5,1.5,1.1,2.3,1.8c0.8,0.6,1.5,1.2,2.2,1.9c0.7,0.6,1.3,1.4,2,2.1
	c0.4,0.4,0.8,0.9,1.2,1.3c-0.7,0.1-1.4,0.3-2,0.7c-1.4,0.9-1.9,2.3-1.7,4c-0.4-0.6-0.9-1.2-1.4-1.9c-0.4-0.5-0.9-1-1.3-1.5
	c-0.5-0.5-0.9-1-1.4-1.4c-1-0.9-2-1.8-3.1-2.6c-1.1-0.8-2.2-1.5-3.4-2.2c-0.2-0.2-0.5-0.4-0.8-0.4c-1.9-0.9-3.8-1.6-5.6-2.1
	c-2.1-0.6-4.2-0.9-6.4-0.9c-2.2,0-4.3,0.2-6.3,0.7c-4.1,1-7.7,3-10.6,5.9c-0.9-2.2-1.8-4.5-2.6-6.8C76,266.6,76.1,266.6,76.1,266.5z
	 M85.4,286.2c2.2-5.4,7.3-8.3,13.3-7.6c2.9,0.4,5.6,1.5,7.6,3.3c1.3,1.1,2.2,2,2.8,3c0.7,0.9,1.2,2,1.8,3.3
	c-0.8,0.2-1.4,0.6-1.9,1.2c-0.2-0.3-0.3-0.6-0.5-0.9c-0.3-0.5-0.7-1.1-1-1.5c-0.8-1-1.7-1.8-2.7-2.5c-2.2-1.6-4.7-2.4-7.3-2.4
	c-4.6-0.1-8.2,2.8-9,7.1c-0.2,1.2-0.2,2.4,0.1,3.7c-1.2-2-2.4-4.1-3.5-6.1C85.1,286.6,85.3,286.5,85.4,286.2z M132.5,339.1
	c2.7-8.8,9.8-15.7,20.1-19.3c2.3-0.8,4.3-1.3,6.1-1.6c2.4-0.4,4.3-0.6,6-0.6c0.9,0,1.7,0,2.6,0l0.3,0c1,0,1.9,0.1,2.9,0.2
	c0.6,0.1,1.3,0.2,1.9,0.3c0.3,0.1,0.6,0.1,0.9,0.2c0.6,0.1,1.1,0.2,1.7,0.4c-0.5,0.5-1,1.1-1.2,1.8c-0.5,1.2-0.4,2.4,0.3,3.5
	c0.2,0.3,0.4,0.5,0.6,0.8c-4.5-1.6-9.2-2-14.1-1.5c-0.3-0.1-0.6,0-0.9,0.1c-0.9,0.2-1.9,0.4-2.9,0.6c-1,0.2-2,0.5-2.9,0.9
	c-4.1,1.5-7.7,4-10.5,7.3c-2.7,3.2-4.5,7-5.1,11c-2.1-1.3-4.1-2.6-6.1-3.9C132.5,339.2,132.5,339.1,132.5,339.1z M151.5,349.6
	c-1.3-5.7,1.1-11,6.3-13.9c2.5-1.4,5.4-2,8.1-1.8c1.5,0.1,2.9,0.4,4,0.8c1.1,0.4,2.2,0.9,3.4,1.6c-0.5,0.6-0.8,1.3-0.9,2
	c-4.4-2.3-9.5-2-13.6,0.8c-3.8,2.6-5,7.1-3.1,11.1c0.5,1.1,1.3,2.1,2.2,3c-2.2-0.9-4.3-1.9-6.5-2.9
	C151.6,350.1,151.6,349.8,151.5,349.6z M220.8,364.6c-1.6-4.5-1.9-9.3-0.9-14.3c0.9-4.4,2.9-8.9,5.8-13.2c2.5-3.5,5.4-6.6,8.5-8.9
	c1.4-1.1,2.9-2.1,4.9-3.2c1.4-0.8,2.8-1.4,4.2-2c-0.2,0.7-0.1,1.5,0,2.2c0.4,1.6,1.5,2.6,3.3,2.8c-5,1.6-9,3.9-12.4,7.2
	c-0.3,0.1-0.5,0.4-0.6,0.6c-1.4,1.4-2.7,2.9-3.8,4.6c-1.2,1.9-2.2,3.8-2.9,5.8c-0.7,2-1.2,4.1-1.3,6.2c-0.3,4.2,0.5,8.3,2.4,11.9
	c-2.4,0.2-4.8,0.3-7.3,0.4C220.8,364.8,220.8,364.7,220.8,364.6z M242.3,361.9c-4.4-3.7-5.5-9.5-3-15c1.1-2.4,3-4.5,5.5-6.2
	c1-0.7,2.2-1.2,3.7-1.7c1.2-0.4,2.4-0.6,3.7-0.7c0,0.8,0.2,1.5,0.5,2.2c-4.9,0.8-8.8,4-10.5,8.7c-1.5,4.2,0.1,8.7,4,10.8
	c1.1,0.6,2.4,0.9,3.7,1.1c-2.4,0.6-4.8,1-7.2,1.5C242.7,362.3,242.6,362.1,242.3,361.9z M359.1,257.4c-0.1,0-0.2,0-0.2,0
	c-4.8,0.1-9.4-1.1-13.9-3.6c-2-1.1-4-2.6-5.8-4.2c-1.7-1.5-3.3-3.3-5-5.4c-1.2-1.6-2.3-3.3-3.4-5.3c-1-1.8-1.8-3.7-2.4-5.5
	c-0.7-2-1.2-3.9-1.5-5.7c-0.3-1.7-0.5-3.2-0.6-4.6c0.6,0.4,1.3,0.6,2.1,0.6c1.3,0.1,2.4-0.4,3.2-1.4c0.2-0.3,0.4-0.5,0.5-0.8
	c0,0.1,0,0.2,0,0.3v0.5c0,0.5,0,1,0,1.5c0.1,1.3,0.2,2.7,0.5,4c0.2,1.1,0.5,2.5,1,3.9c0.4,1.2,0.9,2.3,1.4,3.4l0.1,0.3
	c0,0.3,0.2,0.6,0.4,0.8c0.9,1.7,2,3.4,3.3,5c5.5,6.9,14.1,10.4,22.2,9.1C360.4,252.7,359.8,255.1,359.1,257.4z M363.6,235.9
	c-0.2,0-0.4,0-0.7,0.2c-2.4,1.5-5.2,2.1-7.9,1.8c-2.6-0.3-5.1-1.5-7.3-3.5c-4-3.6-5.6-9.3-4.3-14.9c0.8,0.3,1.5,0.3,2.2,0.2
	c-0.1,0.9-0.2,1.9-0.1,2.8c0.1,1.3,0.3,2.5,0.6,3.6c0.4,1.2,1,2.3,1.7,3.4c0.9,1.2,1.7,2.1,2.8,2.9c3.6,2.8,8.2,2.6,11.5-0.4
	c0.9-0.9,1.6-2,2.2-3.2C364.2,231,363.9,233.4,363.6,235.9z"/>
</svg>
